<svg width="107" height="66" viewBox="0 0 107 66" fill="none" xmlns="http://www.w3.org/2000/svg">
<path d="M4.53384 47.2242C3.57142 46.2611 2.60898 45.2982 1.64656 44.3351C1.26049 43.9488 1.20249 43.2544 1.38556 42.7653C1.5753 42.2586 2.0409 41.8492 2.5776 41.7651C3.24951 41.6599 3.91829 41.5305 4.58518 41.3975C6.24807 41.0663 7.90123 40.6831 9.54054 40.2484C10.6452 39.9555 11.7432 39.637 12.8329 39.2914C15.2306 38.5131 17.5994 37.6012 19.8306 36.4161C20.3725 36.1283 20.9044 35.822 21.4247 35.4963C21.7615 35.276 22.0934 35.0481 22.4164 34.8075C22.7524 34.5573 23.1386 34.4085 23.5634 34.4475C23.9465 34.4827 24.3883 34.6963 24.6255 35.0104C24.8712 35.3358 25.0379 35.7486 24.9808 36.1665C24.9257 36.5685 24.7555 36.9894 24.4209 37.2386C22.8762 38.389 21.1796 39.3307 19.4344 40.1313C17.7122 40.9213 15.9338 41.5834 14.1335 42.1669C12.474 42.7047 10.7995 43.1881 9.109 43.6143C14.471 44.549 19.906 45.0433 25.3495 45.0831C28.4058 45.1055 31.0714 45.0017 34.082 44.744C37.0665 44.4885 40.0397 44.0973 42.9893 43.5701C44.3564 43.3257 45.7204 43.0581 47.0724 42.7383C47.7215 42.5849 48.3677 42.4188 49.0091 42.2354C49.3005 42.152 49.5909 42.0649 49.88 41.9739C49.9313 41.9567 50.1085 41.8989 50.1466 41.886C50.3226 41.8266 50.4982 41.7653 50.6733 41.7024C51.6488 41.3522 52.6059 40.9473 53.5296 40.4747C52.9851 40.2163 52.4499 39.9243 51.9265 39.5926C49.7803 38.2328 47.9223 36.2118 46.9783 33.8179C46.0663 31.5049 46.0366 28.9829 46.8677 26.6352C47.6537 24.415 49.2082 22.4507 51.2936 21.3521C53.5798 20.1477 56.3282 20.2952 58.5714 21.5032C60.8794 22.7461 62.6281 24.9172 63.4181 27.4289C64.2515 30.0793 63.8987 33.0117 62.7263 35.5101C62.1505 36.7372 61.4133 37.8828 60.5477 38.9198C60.6444 38.9223 60.7409 38.9259 60.8377 38.927C61.0368 38.9293 61.2359 38.9287 61.4349 38.9247C61.5203 38.923 61.6056 38.9208 61.6909 38.9179C61.704 38.9175 61.714 38.9171 61.7239 38.9168C61.7384 38.9159 61.7563 38.9146 61.7824 38.9131C63.2138 38.8284 64.6326 38.6055 66.0306 38.2857C68.6594 37.6842 70.9601 36.8536 73.5022 35.794C75.7674 34.8499 77.9787 33.774 80.1231 32.5764C81.1956 31.9774 82.2498 31.3465 83.2886 30.6899C83.2918 30.6878 83.3223 30.6685 83.3524 30.6493C83.4004 30.6183 83.4905 30.5603 83.5084 30.5488C83.6322 30.4685 83.7556 30.3878 83.8788 30.3067C84.1457 30.131 84.4114 29.9533 84.6757 29.7737C85.1841 29.4282 85.6878 29.0757 86.1865 28.7162C88.1815 27.278 90.0973 25.7281 91.9224 24.0761C92.8531 23.2337 93.7602 22.3648 94.6421 21.4705C95.0743 21.0321 95.5006 20.5878 95.9205 20.1375C95.9576 20.0977 95.9946 20.0578 96.0317 20.018C96.0373 20.0119 96.041 20.0077 96.0483 19.9998C96.1479 19.8908 96.2476 19.7816 96.3467 19.672C96.5613 19.4345 96.7744 19.1953 96.9856 18.9547C98.6267 17.0846 100.162 15.1207 101.58 13.0734C102.268 12.0798 102.927 11.0662 103.559 10.0357C103.991 9.32983 105.112 9.16485 105.748 9.6667C106.453 10.2234 106.573 11.1188 106.11 11.8739C103.33 16.4086 99.9907 20.5747 96.2299 24.3206C92.466 28.0699 88.259 31.3326 83.7401 34.102C79.1094 36.9399 74.1204 39.2197 68.9256 40.7779C65.2199 41.8895 61.243 42.4347 57.4899 41.7433C57.4043 41.8039 57.3193 41.8654 57.2325 41.9241C54.7448 43.6099 51.9805 44.6942 49.0982 45.4793C46.2124 46.2651 43.2463 46.7834 40.2901 47.2097C37.178 47.6586 34.0449 47.9576 30.9052 48.107C24.5395 48.4099 18.163 48.1503 11.8531 47.2498C10.7153 47.0875 9.58065 46.9042 8.44942 46.7019C10.4288 48.6825 12.408 50.663 14.3874 52.6437C15.3498 53.6068 16.3123 54.5697 17.2747 55.5328C17.5438 55.802 17.6635 56.3235 17.6299 56.6889C17.5944 57.0754 17.3819 57.5212 17.0701 57.7609C16.747 58.0093 16.3374 58.1779 15.9231 58.121C15.4888 58.0612 15.171 57.8682 14.8609 57.5581C11.4187 54.1134 7.97625 50.6688 4.53384 47.2242ZM54.3114 37.3553C54.285 37.3417 54.2742 37.3363 54.3114 37.3553V37.3553ZM60.5463 32.2804C60.5213 32.3795 60.5285 32.366 60.5463 32.2804V32.2804ZM57.5506 37.5697C57.5843 37.5356 57.7112 37.403 57.739 37.3757C57.9417 37.1529 58.1367 36.9223 58.3244 36.6866C58.7127 36.1987 59.0702 35.6856 59.3898 35.1493C59.4512 35.0463 59.51 34.9418 59.5687 34.8372C59.5747 34.8235 59.6693 34.6478 59.6946 34.5963C59.8359 34.3087 59.9662 34.0152 60.0843 33.7172C60.1928 33.4434 60.2911 33.1655 60.3782 32.884C60.4216 32.7437 60.4623 32.6025 60.5001 32.4605C60.5162 32.4001 60.5311 32.3395 60.5465 32.2792C60.5494 32.265 60.5526 32.2491 60.556 32.2314C60.6753 31.6044 60.749 30.9723 60.7526 30.3336C60.7531 30.2652 60.7446 30.0658 60.7469 30.0638C60.7396 29.9593 60.7328 29.8548 60.7214 29.7506C60.6905 29.4631 60.6428 29.1775 60.5804 28.8953C60.5516 28.7647 60.5194 28.6351 60.4843 28.5062C60.4736 28.4668 60.462 28.4276 60.4507 28.3883C60.4503 28.3871 60.4502 28.387 60.4496 28.3858C60.3428 28.1152 60.2478 27.8424 60.1261 27.5777C60.0141 27.334 59.8909 27.0953 59.7575 26.8628C59.7041 26.7699 59.5391 26.5269 59.692 26.7474C59.603 26.6189 59.5172 26.4887 59.4248 26.3626C59.2671 26.1471 59.0999 25.9389 58.9236 25.7385C58.8357 25.6386 58.7458 25.5409 58.6536 25.4451C58.5989 25.3883 58.4206 25.2259 58.4371 25.2363C58.0474 24.9051 57.6475 24.5956 57.206 24.3346C57.1753 24.3166 57.1443 24.2991 57.1135 24.2815C57.1123 24.2809 57.1115 24.2807 57.1103 24.2801C56.9925 24.2286 56.8785 24.1678 56.7604 24.1164C56.486 23.997 56.2043 23.895 55.9168 23.8127C55.8766 23.8012 55.8361 23.7905 55.7957 23.7796C55.6811 23.7604 55.5671 23.7372 55.4517 23.721C55.1742 23.6823 54.8973 23.6685 54.6176 23.6622C54.597 23.6618 54.5805 23.6612 54.5667 23.6606C54.5533 23.6623 54.537 23.6642 54.5172 23.6663C54.3907 23.6801 54.2644 23.6924 54.1383 23.7115C53.8902 23.7491 53.6522 23.8248 53.4071 23.871C53.3879 23.8777 53.3687 23.884 53.3497 23.8915C53.243 23.9332 53.1366 23.9741 53.0315 24.0199C52.8041 24.1191 52.5891 24.2376 52.3712 24.356C52.3566 24.3639 52.345 24.3701 52.3346 24.3755C52.3309 24.3782 52.3285 24.3799 52.3245 24.3829C52.2313 24.4491 52.1374 24.5142 52.0463 24.5834C51.8482 24.7339 51.6583 24.8954 51.4769 25.0659C51.3962 25.1418 51.3211 25.2256 51.2393 25.3001C51.223 25.3184 51.2065 25.3368 51.1907 25.3555C51.0281 25.5501 50.87 25.7471 50.7232 25.9543C50.587 26.1466 50.4589 26.3449 50.3391 26.5481C50.3046 26.6064 50.2694 26.671 50.2512 26.7041C50.1974 26.8118 50.1431 26.9194 50.0933 27.0292C49.8867 27.4848 49.7272 27.9551 49.5904 28.436C49.5802 28.4721 49.5713 28.5088 49.5623 28.5451C49.5439 28.6442 49.5225 28.7428 49.5055 28.8423C49.462 29.0982 49.4293 29.3561 49.4086 29.6149C49.3895 29.8534 49.3801 30.0928 49.3812 30.3319C49.3812 30.3637 49.3825 30.3946 49.384 30.4225C49.3827 30.4108 49.3813 30.3989 49.3796 30.3851C49.3831 30.4139 49.3848 30.4428 49.3874 30.4716C49.3882 30.4814 49.389 30.4904 49.3898 30.4982C49.3984 30.5991 49.405 30.7001 49.4166 30.8006C49.4438 31.0373 49.4816 31.2725 49.5306 31.5056C49.555 31.6221 49.5824 31.7381 49.6123 31.8531C49.6321 31.9292 49.7052 32.1443 49.6963 32.1268C49.882 32.6245 50.0834 33.109 50.3405 33.5755C50.4019 33.6871 50.468 33.7958 50.5316 33.906C50.5609 33.9497 50.5897 33.9937 50.6193 34.0371C50.7838 34.2784 50.9586 34.5129 51.1427 34.7396C51.3274 34.9671 51.5216 35.1869 51.7236 35.3988C51.8171 35.497 51.9162 35.59 52.0096 35.6881C52.0126 35.6913 52.0134 35.6923 52.0162 35.6951C52.0654 35.74 52.1147 35.7849 52.1647 35.8289C52.5929 36.2058 53.0477 36.5519 53.5228 36.8667C53.7523 37.0189 53.9865 37.1638 54.2248 37.3014C54.2768 37.3314 54.3295 37.3606 54.3815 37.3905C54.5144 37.4583 54.6469 37.5269 54.7813 37.5915C55.3003 37.8409 55.8345 38.0581 56.3797 38.2421C56.4912 38.2797 56.6034 38.3153 56.7157 38.35C56.89 38.1986 57.062 38.0444 57.2291 37.8851C57.3378 37.7818 57.445 37.6766 57.5506 37.5697Z" fill="#041424"/>
</svg>
