<svg width="80" height="80" viewBox="0 0 80 80" fill="none" xmlns="http://www.w3.org/2000/svg">
<circle cx="40" cy="40" r="40" fill="#030164"/>
<path d="M54.4584 51.5374C48.5744 50.0829 44.6661 46.2683 41.6392 41.358C41.2699 40.759 41.1647 40.0834 41.8522 39.652C42.5705 39.2012 43.1427 39.5539 43.5497 40.2163C45.31 43.0828 47.5019 45.5246 50.2998 47.4452C58.1274 52.8192 68.4165 47.7885 69.8628 38.7475C70.8986 32.2722 66.2329 25.6569 59.7894 24.4302C54.616 23.4453 50.5966 25.5175 47.198 29.1836C44.3385 32.2681 41.9751 35.7444 39.4731 39.1104C37.0058 42.43 34.4017 45.6086 31.2279 48.317C22.8558 55.4613 9.79373 51.0274 7.43105 40.3615C5.33987 30.9211 11.352 23.6022 19.5878 22.2186C23.7194 21.5245 27.4204 22.8119 30.7366 25.3235C33.5764 27.4743 35.8585 30.1268 37.8828 33.0258C38.32 33.6517 38.4737 34.3013 37.7753 34.814C37.0387 35.3547 36.5121 34.8951 36.0822 34.2975C33.9801 31.3755 31.6052 28.7488 28.6761 26.5878C21.9834 21.65 13.6235 24.9986 10.4839 31.3252C6.67801 38.9943 11.5578 48.218 20.0286 49.5013C24.0844 50.1158 27.3506 48.6972 30.3258 46.1688C33.5293 43.4463 35.9883 40.0885 38.4566 36.7318C41.0554 33.198 43.5636 29.5858 46.7226 26.5056C48.9719 24.3122 51.6217 22.7006 54.7276 22.2615C62.5411 21.1568 69.0568 25.185 71.3731 32.272C73.6284 39.1719 71.0399 45.9306 64.7966 49.7404C61.6477 51.6619 58.1692 52.1341 54.4584 51.5374Z" fill="white"/>
<path d="M45.6722 39.4V39.202C45.8122 39.202 45.9122 39.194 45.9722 39.178C46.0362 39.162 46.0742 39.13 46.0862 39.082C46.1022 39.034 46.1102 38.962 46.1102 38.866V35.986C46.1102 35.882 46.1022 35.806 46.0862 35.758C46.0702 35.71 46.0302 35.678 45.9662 35.662C45.9062 35.646 45.8082 35.638 45.6722 35.638V35.44H47.4662V35.638C47.3342 35.638 47.2362 35.646 47.1722 35.662C47.1082 35.678 47.0662 35.71 47.0462 35.758C47.0302 35.806 47.0222 35.882 47.0222 35.986V38.794C47.0222 38.91 47.0342 38.996 47.0582 39.052C47.0822 39.104 47.1302 39.138 47.2022 39.154C47.2742 39.166 47.3822 39.172 47.5262 39.172C47.7422 39.172 47.9222 39.148 48.0662 39.1C48.2102 39.048 48.3282 38.962 48.4202 38.842C48.5122 38.722 48.5822 38.554 48.6302 38.338H48.8402L48.7682 39.4H45.6722ZM49.8167 39.4V39.202C49.9327 39.202 50.0167 39.194 50.0687 39.178C50.1247 39.162 50.1607 39.134 50.1767 39.094C50.1927 39.05 50.2007 38.986 50.2007 38.902V37.126C50.2007 37.034 50.1887 36.974 50.1647 36.946C50.1447 36.914 50.1007 36.898 50.0327 36.898H49.8347V36.7L50.7887 36.55H51.0527V38.902C51.0527 38.986 51.0607 39.05 51.0767 39.094C51.0927 39.134 51.1247 39.162 51.1727 39.178C51.2247 39.194 51.3007 39.202 51.4007 39.202V39.4H49.8167ZM50.6027 36.214C50.4707 36.214 50.3547 36.168 50.2547 36.076C50.1587 35.984 50.1107 35.872 50.1107 35.74C50.1107 35.604 50.1587 35.49 50.2547 35.398C50.3547 35.306 50.4707 35.26 50.6027 35.26C50.6947 35.26 50.7767 35.282 50.8487 35.326C50.9247 35.37 50.9847 35.428 51.0287 35.5C51.0727 35.572 51.0947 35.652 51.0947 35.74C51.0947 35.872 51.0447 35.984 50.9447 36.076C50.8487 36.168 50.7347 36.214 50.6027 36.214ZM52.3756 39.4V39.202C52.4916 39.202 52.5756 39.196 52.6276 39.184C52.6836 39.168 52.7196 39.138 52.7356 39.094C52.7516 39.05 52.7596 38.986 52.7596 38.902V36.796H52.3756V36.58H52.7596V36.262C52.7596 36.046 52.8056 35.856 52.8976 35.692C52.9936 35.528 53.1276 35.402 53.2996 35.314C53.4756 35.222 53.6796 35.176 53.9116 35.176C54.1636 35.176 54.3676 35.23 54.5236 35.338C54.6796 35.446 54.7576 35.594 54.7576 35.782C54.7576 35.894 54.7256 35.986 54.6616 36.058C54.6016 36.13 54.5096 36.166 54.3856 36.166C54.2656 36.166 54.1716 36.134 54.1036 36.07C54.0396 36.006 54.0076 35.922 54.0076 35.818C54.0076 35.754 54.0176 35.706 54.0376 35.674C54.0616 35.638 54.0836 35.608 54.1036 35.584C54.1236 35.556 54.1336 35.524 54.1336 35.488C54.1336 35.444 54.1156 35.41 54.0796 35.386C54.0476 35.358 54.0036 35.344 53.9476 35.344C53.8636 35.344 53.7956 35.372 53.7436 35.428C53.6956 35.484 53.6616 35.56 53.6416 35.656C53.6216 35.748 53.6116 35.854 53.6116 35.974V36.58H54.1936V36.796H53.6116V38.902C53.6116 38.99 53.6216 39.056 53.6416 39.1C53.6656 39.14 53.7136 39.168 53.7856 39.184C53.8616 39.196 53.9716 39.202 54.1156 39.202V39.4H52.3756ZM56.461 39.466C56.021 39.466 55.685 39.344 55.453 39.1C55.225 38.852 55.111 38.484 55.111 37.996C55.111 37.664 55.163 37.388 55.267 37.168C55.375 36.948 55.529 36.784 55.729 36.676C55.933 36.568 56.183 36.514 56.479 36.514C56.711 36.514 56.911 36.548 57.079 36.616C57.247 36.68 57.383 36.776 57.487 36.904C57.595 37.028 57.673 37.178 57.721 37.354C57.773 37.53 57.799 37.732 57.799 37.96V38.014H55.621V37.798H56.905C56.905 37.554 56.893 37.354 56.869 37.198C56.849 37.042 56.807 36.926 56.743 36.85C56.683 36.77 56.593 36.73 56.473 36.73C56.373 36.73 56.287 36.762 56.215 36.826C56.147 36.89 56.095 37.002 56.059 37.162C56.023 37.322 56.005 37.544 56.005 37.828C56.005 38.048 56.017 38.238 56.041 38.398C56.065 38.554 56.103 38.684 56.155 38.788C56.211 38.892 56.285 38.97 56.377 39.022C56.473 39.07 56.589 39.094 56.725 39.094C56.865 39.094 56.985 39.072 57.085 39.028C57.189 38.98 57.277 38.914 57.349 38.83C57.425 38.746 57.487 38.648 57.535 38.536L57.739 38.644C57.687 38.768 57.615 38.894 57.523 39.022C57.431 39.15 57.301 39.256 57.133 39.34C56.969 39.424 56.745 39.466 56.461 39.466ZM59.8842 39.472C59.7202 39.472 59.5782 39.444 59.4582 39.388C59.3382 39.328 59.2462 39.234 59.1822 39.106C59.1222 38.974 59.0922 38.802 59.0922 38.59V36.796H58.7322V36.598C58.8922 36.566 59.0402 36.5 59.1762 36.4C59.3122 36.296 59.4282 36.168 59.5242 36.016C59.6242 35.86 59.6982 35.694 59.7462 35.518H59.9442V36.58H60.5322V36.796H59.9442V38.554C59.9442 38.738 59.9682 38.878 60.0162 38.974C60.0682 39.066 60.1582 39.112 60.2862 39.112C60.3582 39.112 60.4242 39.098 60.4842 39.07C60.5482 39.038 60.5922 39.014 60.6162 38.998L60.7182 39.166C60.6662 39.202 60.6042 39.244 60.5322 39.292C60.4602 39.34 60.3722 39.382 60.2682 39.418C60.1642 39.454 60.0362 39.472 59.8842 39.472ZM62.9256 39.466C62.4856 39.466 62.1496 39.344 61.9176 39.1C61.6896 38.852 61.5756 38.484 61.5756 37.996C61.5756 37.664 61.6276 37.388 61.7316 37.168C61.8396 36.948 61.9936 36.784 62.1936 36.676C62.3976 36.568 62.6476 36.514 62.9436 36.514C63.1756 36.514 63.3756 36.548 63.5436 36.616C63.7116 36.68 63.8476 36.776 63.9516 36.904C64.0596 37.028 64.1376 37.178 64.1856 37.354C64.2376 37.53 64.2636 37.732 64.2636 37.96V38.014H62.0856V37.798H63.3696C63.3696 37.554 63.3576 37.354 63.3336 37.198C63.3136 37.042 63.2716 36.926 63.2076 36.85C63.1476 36.77 63.0576 36.73 62.9376 36.73C62.8376 36.73 62.7516 36.762 62.6796 36.826C62.6116 36.89 62.5596 37.002 62.5236 37.162C62.4876 37.322 62.4696 37.544 62.4696 37.828C62.4696 38.048 62.4816 38.238 62.5056 38.398C62.5296 38.554 62.5676 38.684 62.6196 38.788C62.6756 38.892 62.7496 38.97 62.8416 39.022C62.9376 39.07 63.0536 39.094 63.1896 39.094C63.3296 39.094 63.4496 39.072 63.5496 39.028C63.6536 38.98 63.7416 38.914 63.8136 38.83C63.8896 38.746 63.9516 38.648 63.9996 38.536L64.2036 38.644C64.1516 38.768 64.0796 38.894 63.9876 39.022C63.8956 39.15 63.7656 39.256 63.5976 39.34C63.4336 39.424 63.2096 39.466 62.9256 39.466ZM65.2748 39.4V39.202C65.3868 39.202 65.4708 39.194 65.5268 39.178C65.5828 39.162 65.6188 39.134 65.6348 39.094C65.6508 39.05 65.6588 38.986 65.6588 38.902V35.842C65.6588 35.75 65.6468 35.688 65.6228 35.656C65.6028 35.624 65.5568 35.608 65.4848 35.608H65.2868V35.41L66.2528 35.26H66.5108V38.902C66.5108 38.986 66.5168 39.05 66.5288 39.094C66.5408 39.134 66.5688 39.162 66.6128 39.178C66.6608 39.194 66.7348 39.202 66.8348 39.202V39.4H65.2748ZM67.1168 39.4V39.202H67.2008C67.2368 39.202 67.2628 39.198 67.2788 39.19C67.2988 39.178 67.3088 39.162 67.3088 39.142C67.3088 39.122 67.2948 39.092 67.2668 39.052C67.2428 39.008 67.2148 38.962 67.1828 38.914L66.5588 37.972L67.0988 37.402L68.0048 38.668C68.0928 38.792 68.1688 38.894 68.2328 38.974C68.3008 39.05 68.3608 39.108 68.4128 39.148C68.4688 39.184 68.5188 39.202 68.5628 39.202H68.6228V39.4H67.1168ZM65.9708 38.722V38.458L67.2128 37.192C67.3488 37.052 67.4168 36.948 67.4168 36.88C67.4208 36.808 67.3808 36.772 67.2968 36.772H67.1468V36.574L68.3888 36.58V36.778H68.3408C68.1648 36.778 68.0048 36.828 67.8608 36.928C67.7208 37.024 67.5668 37.156 67.3988 37.324L65.9708 38.722Z" fill="white"/>
<path d="M13.9618 39.3V39.102H14.0818C14.2258 39.102 14.3138 39.08 14.3458 39.036C14.3818 38.988 14.3998 38.904 14.3998 38.784V35.88C14.3998 35.78 14.3898 35.706 14.3698 35.658C14.3538 35.61 14.3138 35.578 14.2498 35.562C14.1898 35.546 14.0918 35.538 13.9558 35.538V35.34H15.3418L16.3978 38.04H16.4098L17.4418 35.34H18.7678V35.538C18.6398 35.538 18.5438 35.546 18.4798 35.562C18.4198 35.578 18.3798 35.61 18.3598 35.658C18.3438 35.706 18.3358 35.78 18.3358 35.88V38.766C18.3358 38.858 18.3438 38.93 18.3598 38.982C18.3798 39.03 18.4198 39.062 18.4798 39.078C18.5438 39.094 18.6398 39.102 18.7678 39.102V39.3H17.0278V39.102C17.1558 39.102 17.2478 39.094 17.3038 39.078C17.3598 39.058 17.3958 39.024 17.4118 38.976C17.4278 38.928 17.4358 38.858 17.4358 38.766V35.988H17.4238L16.2118 39.216H15.9058L14.6638 36.024H14.6578V38.784C14.6578 38.916 14.6758 39.002 14.7118 39.042C14.7478 39.082 14.8378 39.102 14.9818 39.102H15.1618V39.3H13.9618ZM20.3411 39.3V39.102C20.4571 39.102 20.5411 39.094 20.5931 39.078C20.6491 39.062 20.6851 39.034 20.7011 38.994C20.7171 38.95 20.7251 38.886 20.7251 38.802V37.026C20.7251 36.934 20.7131 36.874 20.6891 36.846C20.6691 36.814 20.6251 36.798 20.5571 36.798H20.3591V36.6L21.3131 36.45H21.5771V38.802C21.5771 38.886 21.5851 38.95 21.6011 38.994C21.6171 39.034 21.6491 39.062 21.6971 39.078C21.7491 39.094 21.8251 39.102 21.9251 39.102V39.3H20.3411ZM21.1271 36.114C20.9951 36.114 20.8791 36.068 20.7791 35.976C20.6831 35.884 20.6351 35.772 20.6351 35.64C20.6351 35.504 20.6831 35.39 20.7791 35.298C20.8791 35.206 20.9951 35.16 21.1271 35.16C21.2191 35.16 21.3011 35.182 21.3731 35.226C21.4491 35.27 21.5091 35.328 21.5531 35.4C21.5971 35.472 21.6191 35.552 21.6191 35.64C21.6191 35.772 21.5691 35.884 21.4691 35.976C21.3731 36.068 21.2591 36.114 21.1271 36.114ZM24.4899 39.372C24.3259 39.372 24.1839 39.344 24.0639 39.288C23.9439 39.228 23.8519 39.134 23.7879 39.006C23.7279 38.874 23.6979 38.702 23.6979 38.49V36.696H23.3379V36.498C23.4979 36.466 23.6459 36.4 23.7819 36.3C23.9179 36.196 24.0339 36.068 24.1299 35.916C24.2299 35.76 24.3039 35.594 24.3519 35.418H24.5499V36.48H25.1379V36.696H24.5499V38.454C24.5499 38.638 24.5739 38.778 24.6219 38.874C24.6739 38.966 24.7639 39.012 24.8919 39.012C24.9639 39.012 25.0299 38.998 25.0899 38.97C25.1539 38.938 25.1979 38.914 25.2219 38.898L25.3239 39.066C25.2719 39.102 25.2099 39.144 25.1379 39.192C25.0659 39.24 24.9779 39.282 24.8739 39.318C24.7699 39.354 24.6419 39.372 24.4899 39.372ZM27.7173 39.372C27.5533 39.372 27.4113 39.344 27.2913 39.288C27.1713 39.228 27.0793 39.134 27.0153 39.006C26.9553 38.874 26.9253 38.702 26.9253 38.49V36.696H26.5653V36.498C26.7253 36.466 26.8733 36.4 27.0093 36.3C27.1453 36.196 27.2613 36.068 27.3573 35.916C27.4573 35.76 27.5313 35.594 27.5793 35.418H27.7773V36.48H28.3653V36.696H27.7773V38.454C27.7773 38.638 27.8013 38.778 27.8493 38.874C27.9013 38.966 27.9913 39.012 28.1193 39.012C28.1913 39.012 28.2573 38.998 28.3173 38.97C28.3813 38.938 28.4253 38.914 28.4493 38.898L28.5513 39.066C28.4993 39.102 28.4373 39.144 28.3653 39.192C28.2933 39.24 28.2053 39.282 28.1013 39.318C27.9973 39.354 27.8693 39.372 27.7173 39.372ZM29.8766 39.3V39.102C29.9926 39.102 30.0766 39.094 30.1286 39.078C30.1846 39.062 30.2206 39.034 30.2366 38.994C30.2526 38.95 30.2606 38.886 30.2606 38.802V37.026C30.2606 36.934 30.2486 36.874 30.2246 36.846C30.2046 36.814 30.1606 36.798 30.0926 36.798H29.8946V36.6L30.8486 36.45H31.1126V38.802C31.1126 38.886 31.1206 38.95 31.1366 38.994C31.1526 39.034 31.1846 39.062 31.2326 39.078C31.2846 39.094 31.3606 39.102 31.4606 39.102V39.3H29.8766ZM30.6626 36.114C30.5306 36.114 30.4146 36.068 30.3146 35.976C30.2186 35.884 30.1706 35.772 30.1706 35.64C30.1706 35.504 30.2186 35.39 30.3146 35.298C30.4146 35.206 30.5306 35.16 30.6626 35.16C30.7546 35.16 30.8366 35.182 30.9086 35.226C30.9846 35.27 31.0446 35.328 31.0886 35.4C31.1326 35.472 31.1546 35.552 31.1546 35.64C31.1546 35.772 31.1046 35.884 31.0046 35.976C30.9086 36.068 30.7946 36.114 30.6626 36.114Z" fill="white"/>
<path d="M25.3877 52.55C25.6037 52.55 25.7957 52.5905 25.9637 52.6715C26.1317 52.7525 26.2727 52.8665 26.3867 53.0135C26.5037 53.1575 26.5907 53.3255 26.6477 53.5175C26.7077 53.7065 26.7377 53.909 26.7377 54.125C26.7377 54.416 26.6852 54.6815 26.5802 54.9215C26.4752 55.1585 26.3222 55.3475 26.1212 55.4885C25.9232 55.6295 25.6787 55.7 25.3877 55.7H24.3122C24.2342 55.7 24.1682 55.6745 24.1142 55.6235C24.0632 55.5695 24.0377 55.5035 24.0377 55.4255V52.8245C24.0377 52.7465 24.0632 52.682 24.1142 52.631C24.1682 52.577 24.2342 52.55 24.3122 52.55H25.3877ZM25.3427 55.1825C25.5317 55.1825 25.6862 55.1345 25.8062 55.0385C25.9262 54.9395 26.0132 54.8105 26.0672 54.6515C26.1242 54.4895 26.1527 54.314 26.1527 54.125C26.1527 53.984 26.1362 53.8505 26.1032 53.7245C26.0732 53.5955 26.0252 53.483 25.9592 53.387C25.8932 53.288 25.8092 53.21 25.7072 53.153C25.6052 53.096 25.4837 53.0675 25.3427 53.0675H24.5552L24.6002 53.027V55.232L24.5732 55.1825H25.3427ZM27.952 55.4255C27.952 55.5035 27.9235 55.5695 27.8665 55.6235C27.8095 55.6745 27.7435 55.7 27.6685 55.7C27.5845 55.7 27.517 55.6745 27.466 55.6235C27.415 55.5695 27.3895 55.5035 27.3895 55.4255V52.8245C27.3895 52.7465 27.4165 52.682 27.4705 52.631C27.5245 52.577 27.5935 52.55 27.6775 52.55C27.7495 52.55 27.8125 52.577 27.8665 52.631C27.9235 52.682 27.952 52.7465 27.952 52.8245V55.4255ZM29.9203 53.2565L28.9482 55.5425C28.9273 55.5995 28.8943 55.6445 28.8492 55.6775C28.8073 55.7075 28.7607 55.7225 28.7097 55.7225C28.6287 55.7225 28.5687 55.7 28.5297 55.655C28.4907 55.61 28.4712 55.5545 28.4712 55.4885C28.4712 55.4615 28.4757 55.433 28.4847 55.403L29.6053 52.712C29.6293 52.652 29.6653 52.6055 29.7133 52.5725C29.7643 52.5395 29.8183 52.526 29.8753 52.532C29.9293 52.532 29.9788 52.5485 30.0238 52.5815C30.0718 52.6115 30.1063 52.655 30.1273 52.712L31.2343 55.349C31.2493 55.388 31.2568 55.424 31.2568 55.457C31.2568 55.538 31.2298 55.6025 31.1757 55.6505C31.1248 55.6985 31.0678 55.7225 31.0048 55.7225C30.9508 55.7225 30.9013 55.706 30.8563 55.673C30.8143 55.64 30.7813 55.595 30.7573 55.538L29.7897 53.2835L29.9203 53.2565ZM29.0877 54.9935L29.3353 54.476H30.5503L30.6358 54.9935H29.0877ZM33.2358 55.745C33.0078 55.745 32.7948 55.703 32.5968 55.619C32.3988 55.535 32.2248 55.4195 32.0748 55.2725C31.9248 55.1225 31.8063 54.95 31.7193 54.755C31.6353 54.56 31.5933 54.35 31.5933 54.125C31.5933 53.9 31.6353 53.69 31.7193 53.495C31.8063 53.3 31.9248 53.129 32.0748 52.982C32.2248 52.832 32.3988 52.715 32.5968 52.631C32.7948 52.547 33.0078 52.505 33.2358 52.505C33.3768 52.505 33.5133 52.52 33.6453 52.55C33.7773 52.58 33.8988 52.625 34.0098 52.685C34.0548 52.709 34.0878 52.742 34.1088 52.784C34.1328 52.823 34.1448 52.8635 34.1448 52.9055C34.1448 52.9775 34.1208 53.042 34.0728 53.099C34.0248 53.156 33.9633 53.1845 33.8883 53.1845C33.8643 53.1845 33.8388 53.1815 33.8118 53.1755C33.7878 53.1695 33.7638 53.1605 33.7398 53.1485C33.6648 53.1155 33.5853 53.09 33.5013 53.072C33.4173 53.054 33.3288 53.045 33.2358 53.045C33.0408 53.045 32.8623 53.0945 32.7003 53.1935C32.5413 53.2895 32.4138 53.42 32.3178 53.585C32.2248 53.747 32.1783 53.927 32.1783 54.125C32.1783 54.32 32.2248 54.5 32.3178 54.665C32.4138 54.83 32.5413 54.962 32.7003 55.061C32.8623 55.157 33.0408 55.205 33.2358 55.205C33.3258 55.205 33.4248 55.196 33.5328 55.178C33.6408 55.16 33.7293 55.136 33.7983 55.106L33.7578 55.241V54.4715L33.8343 54.539H33.3348C33.2568 54.539 33.1908 54.5135 33.1368 54.4625C33.0858 54.4115 33.0603 54.347 33.0603 54.269C33.0603 54.191 33.0858 54.1265 33.1368 54.0755C33.1908 54.0245 33.2568 53.999 33.3348 53.999H34.0728C34.1508 53.999 34.2153 54.026 34.2663 54.08C34.3173 54.131 34.3428 54.1955 34.3428 54.2735V55.2275C34.3428 55.2875 34.3278 55.337 34.2978 55.376C34.2708 55.415 34.2393 55.4465 34.2033 55.4705C34.0653 55.5545 33.9138 55.622 33.7488 55.673C33.5868 55.721 33.4158 55.745 33.2358 55.745ZM37.4086 52.55C37.4806 52.55 37.5391 52.574 37.5841 52.622C37.6291 52.67 37.6516 52.73 37.6516 52.802V55.4255C37.6516 55.5035 37.6246 55.5695 37.5706 55.6235C37.5196 55.6745 37.4551 55.7 37.3771 55.7C37.3381 55.7 37.2976 55.694 37.2556 55.682C37.2166 55.667 37.1866 55.6475 37.1656 55.6235L35.3971 53.378L35.5141 53.306V55.448C35.5141 55.52 35.4901 55.58 35.4421 55.628C35.3971 55.676 35.3371 55.7 35.2621 55.7C35.1901 55.7 35.1316 55.676 35.0866 55.628C35.0416 55.58 35.0191 55.52 35.0191 55.448V52.8245C35.0191 52.7465 35.0446 52.682 35.0956 52.631C35.1496 52.577 35.2156 52.55 35.2936 52.55C35.3356 52.55 35.3791 52.559 35.4241 52.577C35.4691 52.592 35.5021 52.616 35.5231 52.649L37.2376 54.836L37.1611 54.89V52.802C37.1611 52.73 37.1836 52.67 37.2286 52.622C37.2736 52.574 37.3336 52.55 37.4086 52.55ZM41.3612 54.125C41.3612 54.35 41.3237 54.56 41.2487 54.755C41.1737 54.95 41.0672 55.1225 40.9292 55.2725C40.7942 55.4195 40.6322 55.535 40.4432 55.619C40.2572 55.703 40.0532 55.745 39.8312 55.745C39.6092 55.745 39.4052 55.703 39.2192 55.619C39.0332 55.535 38.8712 55.4195 38.7332 55.2725C38.5982 55.1225 38.4932 54.95 38.4182 54.755C38.3432 54.56 38.3057 54.35 38.3057 54.125C38.3057 53.9 38.3432 53.69 38.4182 53.495C38.4932 53.3 38.5982 53.129 38.7332 52.982C38.8712 52.832 39.0332 52.715 39.2192 52.631C39.4052 52.547 39.6092 52.505 39.8312 52.505C40.0532 52.505 40.2572 52.547 40.4432 52.631C40.6322 52.715 40.7942 52.832 40.9292 52.982C41.0672 53.129 41.1737 53.3 41.2487 53.495C41.3237 53.69 41.3612 53.9 41.3612 54.125ZM40.7762 54.125C40.7762 53.924 40.7357 53.7425 40.6547 53.5805C40.5737 53.4155 40.4627 53.285 40.3217 53.189C40.1807 53.093 40.0172 53.045 39.8312 53.045C39.6452 53.045 39.4817 53.093 39.3407 53.189C39.1997 53.285 39.0887 53.414 39.0077 53.576C38.9297 53.738 38.8907 53.921 38.8907 54.125C38.8907 54.326 38.9297 54.509 39.0077 54.674C39.0887 54.836 39.1997 54.965 39.3407 55.061C39.4817 55.157 39.6452 55.205 39.8312 55.205C40.0172 55.205 40.1807 55.157 40.3217 55.061C40.4627 54.965 40.5737 54.836 40.6547 54.674C40.7357 54.509 40.7762 54.326 40.7762 54.125ZM43.0252 55.745C42.8152 55.745 42.6262 55.7195 42.4582 55.6685C42.2902 55.6145 42.1297 55.5215 41.9767 55.3895C41.9377 55.3565 41.9077 55.319 41.8867 55.277C41.8657 55.235 41.8552 55.193 41.8552 55.151C41.8552 55.082 41.8792 55.022 41.9272 54.971C41.9782 54.917 42.0412 54.89 42.1162 54.89C42.1732 54.89 42.2242 54.908 42.2692 54.944C42.3832 55.037 42.4957 55.1075 42.6067 55.1555C42.7207 55.2035 42.8602 55.2275 43.0252 55.2275C43.1362 55.2275 43.2382 55.211 43.3312 55.178C43.4242 55.142 43.4992 55.0955 43.5562 55.0385C43.6132 54.9785 43.6417 54.911 43.6417 54.836C43.6417 54.746 43.6147 54.6695 43.5607 54.6065C43.5067 54.5435 43.4242 54.491 43.3132 54.449C43.2022 54.404 43.0612 54.3695 42.8902 54.3455C42.7282 54.3215 42.5857 54.2855 42.4627 54.2375C42.3397 54.1865 42.2362 54.1235 42.1522 54.0485C42.0712 53.9705 42.0097 53.8805 41.9677 53.7785C41.9257 53.6735 41.9047 53.5565 41.9047 53.4275C41.9047 53.2325 41.9542 53.066 42.0532 52.928C42.1552 52.79 42.2917 52.685 42.4627 52.613C42.6337 52.541 42.8227 52.505 43.0297 52.505C43.2247 52.505 43.4047 52.535 43.5697 52.595C43.7377 52.652 43.8742 52.7255 43.9792 52.8155C44.0662 52.8845 44.1097 52.964 44.1097 53.054C44.1097 53.12 44.0842 53.18 44.0332 53.234C43.9822 53.288 43.9222 53.315 43.8532 53.315C43.8082 53.315 43.7677 53.3015 43.7317 53.2745C43.6837 53.2325 43.6192 53.1935 43.5382 53.1575C43.4572 53.1185 43.3717 53.087 43.2817 53.063C43.1917 53.036 43.1077 53.0225 43.0297 53.0225C42.9007 53.0225 42.7912 53.039 42.7012 53.072C42.6142 53.105 42.5482 53.15 42.5032 53.207C42.4582 53.264 42.4357 53.33 42.4357 53.405C42.4357 53.495 42.4612 53.57 42.5122 53.63C42.5662 53.687 42.6427 53.7335 42.7417 53.7695C42.8407 53.8025 42.9592 53.8325 43.0972 53.8595C43.2772 53.8925 43.4347 53.9315 43.5697 53.9765C43.7077 54.0215 43.8217 54.08 43.9117 54.152C44.0017 54.221 44.0692 54.3095 44.1142 54.4175C44.1592 54.5225 44.1817 54.6515 44.1817 54.8045C44.1817 54.9995 44.1277 55.1675 44.0197 55.3085C43.9117 55.4495 43.7692 55.5575 43.5922 55.6325C43.4182 55.7075 43.2292 55.745 43.0252 55.745ZM45.8993 55.7C45.8153 55.7 45.7463 55.6745 45.6923 55.6235C45.6383 55.5695 45.6113 55.5035 45.6113 55.4255V52.8155H46.1963V55.4255C46.1963 55.5035 46.1678 55.5695 46.1108 55.6235C46.0568 55.6745 45.9863 55.7 45.8993 55.7ZM44.9048 53.0675C44.8268 53.0675 44.7608 53.0435 44.7068 52.9955C44.6558 52.9475 44.6303 52.8845 44.6303 52.8065C44.6303 52.7285 44.6558 52.667 44.7068 52.622C44.7608 52.574 44.8268 52.55 44.9048 52.55H46.9028C46.9808 52.55 47.0453 52.574 47.0963 52.622C47.1503 52.67 47.1773 52.733 47.1773 52.811C47.1773 52.889 47.1503 52.952 47.0963 53C47.0453 53.045 46.9808 53.0675 46.9028 53.0675H44.9048ZM48.3472 55.4255C48.3472 55.5035 48.3187 55.5695 48.2617 55.6235C48.2047 55.6745 48.1387 55.7 48.0637 55.7C47.9797 55.7 47.9122 55.6745 47.8612 55.6235C47.8102 55.5695 47.7847 55.5035 47.7847 55.4255V52.8245C47.7847 52.7465 47.8117 52.682 47.8657 52.631C47.9197 52.577 47.9887 52.55 48.0727 52.55C48.1447 52.55 48.2077 52.577 48.2617 52.631C48.3187 52.682 48.3472 52.7465 48.3472 52.8245V55.4255ZM51.3639 52.703C51.4419 52.742 51.4869 52.8035 51.4989 52.8875C51.5139 52.9715 51.4929 53.048 51.4359 53.117C51.3969 53.171 51.3459 53.201 51.2829 53.207C51.2229 53.213 51.1614 53.201 51.0984 53.171C51.0264 53.138 50.9499 53.1125 50.8689 53.0945C50.7909 53.0765 50.7084 53.0675 50.6214 53.0675C50.4594 53.0675 50.3139 53.093 50.1849 53.144C50.0589 53.195 49.9509 53.2685 49.8609 53.3645C49.7709 53.4575 49.7019 53.5685 49.6539 53.6975C49.6089 53.8265 49.5864 53.969 49.5864 54.125C49.5864 54.308 49.6119 54.467 49.6629 54.602C49.7169 54.737 49.7904 54.8495 49.8834 54.9395C49.9764 55.0295 50.0859 55.097 50.2119 55.142C50.3379 55.184 50.4744 55.205 50.6214 55.205C50.7024 55.205 50.7834 55.1975 50.8644 55.1825C50.9454 55.1675 51.0234 55.1405 51.0984 55.1015C51.1614 55.0715 51.2229 55.061 51.2829 55.07C51.3459 55.079 51.3984 55.1105 51.4404 55.1645C51.5004 55.2395 51.5214 55.3175 51.5034 55.3985C51.4884 55.4765 51.4434 55.5335 51.3684 55.5695C51.2904 55.6085 51.2094 55.6415 51.1254 55.6685C51.0444 55.6925 50.9619 55.7105 50.8779 55.7225C50.7939 55.7375 50.7084 55.745 50.6214 55.745C50.4054 55.745 50.1999 55.7105 50.0049 55.6415C49.8129 55.5725 49.6404 55.4705 49.4874 55.3355C49.3374 55.2005 49.2189 55.0325 49.1319 54.8315C49.0449 54.6275 49.0014 54.392 49.0014 54.125C49.0014 53.894 49.0404 53.681 49.1184 53.486C49.1994 53.291 49.3119 53.123 49.4559 52.982C49.6029 52.838 49.7754 52.727 49.9734 52.649C50.1714 52.568 50.3874 52.5275 50.6214 52.5275C50.7534 52.5275 50.8824 52.5425 51.0084 52.5725C51.1344 52.6025 51.2529 52.646 51.3639 52.703ZM53.1277 55.745C52.9177 55.745 52.7287 55.7195 52.5607 55.6685C52.3927 55.6145 52.2322 55.5215 52.0792 55.3895C52.0402 55.3565 52.0102 55.319 51.9892 55.277C51.9682 55.235 51.9577 55.193 51.9577 55.151C51.9577 55.082 51.9817 55.022 52.0297 54.971C52.0807 54.917 52.1437 54.89 52.2187 54.89C52.2757 54.89 52.3267 54.908 52.3717 54.944C52.4857 55.037 52.5982 55.1075 52.7092 55.1555C52.8232 55.2035 52.9627 55.2275 53.1277 55.2275C53.2387 55.2275 53.3407 55.211 53.4337 55.178C53.5267 55.142 53.6017 55.0955 53.6587 55.0385C53.7157 54.9785 53.7442 54.911 53.7442 54.836C53.7442 54.746 53.7172 54.6695 53.6632 54.6065C53.6092 54.5435 53.5267 54.491 53.4157 54.449C53.3047 54.404 53.1637 54.3695 52.9927 54.3455C52.8307 54.3215 52.6882 54.2855 52.5652 54.2375C52.4422 54.1865 52.3387 54.1235 52.2547 54.0485C52.1737 53.9705 52.1122 53.8805 52.0702 53.7785C52.0282 53.6735 52.0072 53.5565 52.0072 53.4275C52.0072 53.2325 52.0567 53.066 52.1557 52.928C52.2577 52.79 52.3942 52.685 52.5652 52.613C52.7362 52.541 52.9252 52.505 53.1322 52.505C53.3272 52.505 53.5072 52.535 53.6722 52.595C53.8402 52.652 53.9767 52.7255 54.0817 52.8155C54.1687 52.8845 54.2122 52.964 54.2122 53.054C54.2122 53.12 54.1867 53.18 54.1357 53.234C54.0847 53.288 54.0247 53.315 53.9557 53.315C53.9107 53.315 53.8702 53.3015 53.8342 53.2745C53.7862 53.2325 53.7217 53.1935 53.6407 53.1575C53.5597 53.1185 53.4742 53.087 53.3842 53.063C53.2942 53.036 53.2102 53.0225 53.1322 53.0225C53.0032 53.0225 52.8937 53.039 52.8037 53.072C52.7167 53.105 52.6507 53.15 52.6057 53.207C52.5607 53.264 52.5382 53.33 52.5382 53.405C52.5382 53.495 52.5637 53.57 52.6147 53.63C52.6687 53.687 52.7452 53.7335 52.8442 53.7695C52.9432 53.8025 53.0617 53.8325 53.1997 53.8595C53.3797 53.8925 53.5372 53.9315 53.6722 53.9765C53.8102 54.0215 53.9242 54.08 54.0142 54.152C54.1042 54.221 54.1717 54.3095 54.2167 54.4175C54.2617 54.5225 54.2842 54.6515 54.2842 54.8045C54.2842 54.9995 54.2302 55.1675 54.1222 55.3085C54.0142 55.4495 53.8717 55.5575 53.6947 55.6325C53.5207 55.7075 53.3317 55.745 53.1277 55.745Z" fill="white"/>
</svg>
