<svg width="130" height="51" viewBox="0 0 130 51" fill="none" xmlns="http://www.w3.org/2000/svg">
<path d="M62.208 33.166V15.646H65.04V33.166H62.208ZM60.504 17.806V15.646H65.04V17.806H60.504ZM76.9656 33.166V29.302H76.5096V24.934C76.5096 24.134 76.3016 23.526 75.8856 23.11C75.4696 22.694 74.8536 22.486 74.0376 22.486C73.5896 22.486 73.0936 22.494 72.5496 22.51C72.0056 22.526 71.4696 22.55 70.9416 22.582C70.4296 22.598 69.9736 22.622 69.5736 22.654V20.23C69.9256 20.198 70.3096 20.174 70.7256 20.158C71.1576 20.126 71.5976 20.102 72.0456 20.086C72.5096 20.07 72.9496 20.062 73.3656 20.062C74.6776 20.062 75.7656 20.23 76.6296 20.566C77.4936 20.902 78.1336 21.438 78.5496 22.174C78.9816 22.894 79.1976 23.862 79.1976 25.078V33.166H76.9656ZM72.7656 33.502C71.8216 33.502 70.9976 33.342 70.2936 33.022C69.5896 32.686 69.0456 32.206 68.6616 31.582C68.2776 30.942 68.0856 30.182 68.0856 29.302C68.0856 28.374 68.3016 27.606 68.7336 26.998C69.1816 26.39 69.8136 25.934 70.6296 25.63C71.4456 25.326 72.4216 25.174 73.5576 25.174H76.7976V27.022H73.4856C72.6376 27.022 71.9896 27.23 71.5416 27.646C71.0936 28.046 70.8696 28.574 70.8696 29.23C70.8696 29.886 71.0936 30.414 71.5416 30.814C71.9896 31.198 72.6376 31.39 73.4856 31.39C73.9816 31.39 74.4536 31.302 74.9016 31.126C75.3496 30.934 75.7176 30.622 76.0056 30.19C76.3096 29.758 76.4776 29.15 76.5096 28.366L77.2296 29.302C77.1496 30.214 76.9256 30.982 76.5576 31.606C76.2056 32.214 75.7096 32.686 75.0696 33.022C74.4456 33.342 73.6776 33.502 72.7656 33.502ZM90.3109 33.598C89.2549 33.598 88.3109 33.366 87.4789 32.902C86.6629 32.438 86.0149 31.766 85.5349 30.886C85.0709 30.006 84.8149 28.942 84.7669 27.694H85.3429V33.166H83.1109V15.646H85.9189V24.286L85.0789 25.846C85.1269 24.47 85.3909 23.342 85.8709 22.462C86.3669 21.566 87.0149 20.902 87.8149 20.47C88.6149 20.038 89.5109 19.822 90.5029 19.822C91.4149 19.822 92.2389 19.99 92.9749 20.326C93.7269 20.662 94.3669 21.134 94.8949 21.742C95.4389 22.334 95.8469 23.03 96.1189 23.83C96.4069 24.63 96.5509 25.494 96.5509 26.422V26.902C96.5509 27.83 96.4069 28.694 96.1189 29.494C95.8309 30.294 95.4069 31.006 94.8469 31.63C94.3029 32.238 93.6469 32.718 92.8789 33.07C92.1109 33.422 91.2549 33.598 90.3109 33.598ZM89.8069 31.174C90.5909 31.174 91.2789 30.982 91.8709 30.598C92.4629 30.214 92.9189 29.686 93.2389 29.014C93.5749 28.326 93.7429 27.542 93.7429 26.662C93.7429 25.766 93.5749 24.99 93.2389 24.334C92.9029 23.662 92.4389 23.142 91.8469 22.774C91.2709 22.406 90.5909 22.222 89.8069 22.222C89.1029 22.222 88.4469 22.382 87.8389 22.702C87.2309 23.022 86.7429 23.486 86.3749 24.094C86.0069 24.686 85.8229 25.406 85.8229 26.254V27.286C85.8229 28.102 86.0069 28.806 86.3749 29.398C86.7589 29.974 87.2549 30.414 87.8629 30.718C88.4709 31.022 89.1189 31.174 89.8069 31.174ZM99.7749 33.166V20.23H102.007V25.63H101.911C101.911 23.774 102.319 22.39 103.135 21.478C103.951 20.55 105.159 20.086 106.759 20.086H107.215V22.558H106.351C105.135 22.558 104.199 22.886 103.543 23.542C102.903 24.182 102.583 25.102 102.583 26.302V33.166H99.7749ZM110.336 33.166V20.23H113.144V33.166H110.336ZM108.44 22.39V20.23H113.144V22.39H108.44ZM111.248 18.43C110.672 18.43 110.24 18.278 109.952 17.974C109.68 17.67 109.544 17.278 109.544 16.798C109.544 16.334 109.68 15.95 109.952 15.646C110.24 15.326 110.672 15.166 111.248 15.166C111.84 15.166 112.272 15.326 112.544 15.646C112.832 15.95 112.976 16.334 112.976 16.798C112.976 17.278 112.832 17.67 112.544 17.974C112.272 18.278 111.84 18.43 111.248 18.43ZM115.818 33.166L120.234 26.326L120.138 26.83L116.01 20.23H119.082L121.938 24.934H122.298L124.986 20.23H127.866L123.954 26.734L124.026 26.278L128.658 33.166H125.586L122.226 28.102H121.89L118.698 33.166H115.818Z" fill="white"/>
<ellipse cx="25" cy="25.1533" rx="25" ry="24.9814" fill="#0C5ADB"/>
<path d="M37.9822 29.9723C37.9357 29.5717 37.7954 29.1412 37.5653 28.6919C37.1447 27.8709 36.4251 26.9772 35.4261 26.0374C34.9789 25.6164 34.4849 25.1943 33.95 24.775C33.6622 25.0641 33.361 25.3533 33.0462 25.6429C33.5988 26.0707 34.1063 26.5012 34.5616 26.9298C35.4446 27.761 36.0969 28.5627 36.4481 29.2481C36.661 29.6638 36.8707 30.2498 36.6594 30.6814C36.4481 31.1129 35.8534 31.3172 35.3915 31.4127C34.6291 31.5699 33.5871 31.5679 32.3768 31.4066C31.5153 31.2921 30.59 31.1022 29.6204 30.8458C29.7493 29.9989 29.8489 29.1133 29.9175 28.2007C29.9284 28.0608 29.9382 27.9201 29.947 27.7788C30.9736 27.016 31.9277 26.2311 32.7858 25.4438C33.1014 25.1544 33.4037 24.865 33.6925 24.5756C34.2278 24.0426 34.7349 23.4828 35.2118 22.8985C35.2895 22.8023 35.365 22.7072 35.4381 22.6132C35.8629 22.7154 36.3102 22.6732 36.7077 22.4936C37.1052 22.314 37.4296 22.0075 37.6285 21.6236C37.8273 21.2397 37.889 20.8009 37.8035 20.3782C37.7181 19.9555 37.4904 19.5735 37.1574 19.2942C37.1962 19.0857 37.2142 18.874 37.2111 18.662C37.2016 18.2056 37.08 17.7996 36.8496 17.4547C36.6191 17.1099 36.2886 16.8395 35.8669 16.6511C35.495 16.4846 35.048 16.3818 34.5386 16.3455C33.6081 16.2791 32.4613 16.4286 31.1295 16.79C30.5213 16.9549 29.8868 17.1606 29.233 17.4039C29.209 17.2981 29.1842 17.1932 29.1588 17.0892C29.0238 16.533 28.8738 16.0033 28.7096 15.505C28.2834 14.2102 27.7795 13.1836 27.2106 12.4542C26.8996 12.0548 26.5665 11.7435 26.221 11.5288C25.8294 11.2855 25.4183 11.1621 24.9995 11.1621C24.5808 11.1621 24.1697 11.2855 23.7781 11.5288C23.4326 11.7435 23.0995 12.0548 22.7885 12.4542C22.2204 13.1836 21.7157 14.2102 21.2895 15.5053C21.0157 16.336 20.7817 17.2534 20.5905 18.2367C19.6557 17.9928 18.7589 17.8093 17.9175 17.6919C17.8644 17.2177 17.6337 16.7801 17.2705 16.4648C16.9073 16.1495 16.4378 15.9792 15.9539 15.9872C15.4701 15.9952 15.0067 16.181 14.6544 16.5081C14.3022 16.8353 14.0865 17.2803 14.0496 17.756C13.6774 17.8566 13.3506 17.9927 13.0767 18.1622C12.6845 18.4047 12.394 18.7162 12.212 19.0883C12.0299 19.4604 11.965 19.8789 12.0177 20.3323C12.0642 20.7329 12.2045 21.1633 12.4346 21.6126C12.8552 22.4336 13.5748 23.3273 14.5738 24.2671C15.021 24.6881 15.515 25.1102 16.05 25.5296C16.3377 25.2405 16.6389 24.9512 16.9537 24.6617C16.4011 24.2338 15.8936 23.8034 15.4383 23.3747C14.5553 22.5435 13.903 21.7418 13.5519 21.0564C13.3389 20.6407 13.1292 20.0547 13.3405 19.6232C13.5151 19.2655 13.954 19.0639 14.3623 18.9511C14.5419 19.2212 14.7878 19.4421 15.0771 19.5934C15.3665 19.7446 15.69 19.8213 16.0175 19.8163C16.345 19.8113 16.6659 19.7247 16.9504 19.5647C17.2349 19.4046 17.4737 19.1762 17.6446 18.9008C18.4994 19.0157 19.4182 19.2038 20.3798 19.4584C20.2509 20.3053 20.1513 21.1909 20.0827 22.1035C20.0719 22.2433 20.062 22.384 20.0533 22.5254C19.0266 23.2882 18.0726 24.0731 17.2145 24.8604C16.8988 25.1498 16.5966 25.4392 16.3078 25.7286C15.7725 26.2616 15.2654 26.8214 14.7884 27.4057C13.9261 28.4695 13.334 29.4494 13.0288 30.3184C12.8615 30.7942 12.7809 31.2395 12.7893 31.6422C12.7986 32.0986 12.9202 32.5047 13.1507 32.8495C13.3812 33.1944 13.7117 33.4647 14.1333 33.6533C14.5052 33.8196 14.9522 33.9224 15.4617 33.9587C15.6049 33.9694 15.7532 33.9748 15.9064 33.9748C16.7494 33.9748 17.7433 33.8206 18.8707 33.5149C19.479 33.35 20.1134 33.1442 20.7672 32.901C20.7913 33.0067 20.816 33.1116 20.8415 33.2157C20.9764 33.7719 21.1264 34.3015 21.2906 34.7999C21.7163 36.0937 22.2202 37.1193 22.7892 37.8492C23.1001 38.2486 23.4332 38.5599 23.7788 38.7747C24.1704 39.0179 24.5815 39.1413 25.0002 39.1413C25.4189 39.1413 25.83 39.0179 26.2216 38.7747C26.5672 38.5599 26.9003 38.2486 27.2112 37.8492C27.3582 37.6591 27.4945 37.4612 27.6194 37.2563C28.0405 37.2996 28.4644 37.2061 28.8266 36.99C29.1888 36.7739 29.4695 36.4471 29.6259 36.0592C29.7823 35.6714 29.806 35.2438 29.6932 34.8415C29.5804 34.4392 29.3373 34.0843 29.0011 33.8307C29.1537 33.2719 29.2903 32.6822 29.4102 32.0669C30.3922 32.3233 31.3322 32.5127 32.2102 32.6296C32.8835 32.7194 33.5054 32.7643 34.0722 32.7643C34.6574 32.7643 35.185 32.7162 35.6489 32.62C36.1488 32.5168 36.5778 32.3559 36.9238 32.142C37.3161 31.8996 37.6066 31.588 37.7886 31.2159C37.9707 30.8439 38.0349 30.4256 37.9822 29.9723ZM18.5378 32.3234C17.3606 32.6428 16.3279 32.7824 15.5511 32.7269C15.0797 32.6933 14.462 32.5694 14.1951 32.1694C13.9282 31.7694 14.0559 31.1611 14.2105 30.7211C14.4656 29.9957 15.0031 29.1153 15.7653 28.1749C16.2192 27.6149 16.7419 27.0433 17.3234 26.4685C17.616 26.1791 17.9231 25.8893 18.2447 25.5993C18.7867 25.11 19.3675 24.6218 19.9811 24.1393C19.9776 24.2781 19.975 24.417 19.9733 24.5559C19.9704 24.7537 19.9689 24.952 19.9689 25.1511C19.9689 25.6784 19.9787 26.2007 19.9983 26.7181C19.4855 26.4123 18.9925 26.1011 18.5191 25.7847C18.1963 26.0745 17.8874 26.3644 17.5926 26.6542C18.3679 27.183 19.2018 27.7 20.0806 28.1988C20.163 29.2951 20.2901 30.3522 20.459 31.3504C20.4771 31.4584 20.4958 31.5658 20.5152 31.6725C19.8317 31.934 19.1693 32.1516 18.5378 32.3234ZM28.3527 19.4411C28.4525 20.0679 28.5354 20.7185 28.6006 21.3877C28.1367 21.1465 27.6635 20.9115 27.1808 20.6826C26.94 20.5685 26.6994 20.457 26.4588 20.3483C26.334 20.2919 26.2094 20.2362 26.0849 20.1813C26.8349 19.7863 27.5762 19.4293 28.2992 19.1147C28.3175 19.2227 28.3353 19.3315 28.3527 19.4411ZM22.4803 15.8865C22.8574 14.7417 23.3076 13.8148 23.7817 13.2059C24.0694 12.8365 24.5143 12.3962 25 12.3962C25.4857 12.3962 25.9306 12.8365 26.2184 13.2059C26.6925 13.8148 27.1426 14.7417 27.5197 15.8865C27.6914 16.4078 27.8468 16.9658 27.9851 17.555C28.0098 17.6599 28.034 17.7659 28.0575 17.8729C26.9424 18.3462 25.7858 18.9163 24.6193 19.5684C24.49 19.5171 24.3609 19.4668 24.2321 19.4174C23.4069 19.1004 22.5917 18.819 21.7976 18.5787C21.9832 17.6055 22.2118 16.7009 22.4803 15.8865ZM21.4223 21.1606C21.4702 20.6994 21.5265 20.248 21.5913 19.8065C22.0096 19.9362 22.4336 20.0771 22.8631 20.2292C22.9919 20.2747 23.121 20.3213 23.2505 20.3688C22.9107 20.5763 22.5712 20.7899 22.2321 21.0098C21.9446 21.1965 21.661 21.3855 21.3813 21.5767C21.3941 21.4369 21.4077 21.2981 21.4221 21.1604L21.4223 21.1606ZM21.6473 30.8624C21.5474 30.2357 21.4645 29.5851 21.3994 28.9159C21.8632 29.1571 22.3364 29.3922 22.8191 29.621C23.0599 29.7351 23.3006 29.8465 23.5411 29.9553C23.6659 30.0117 23.7905 30.0673 23.915 30.1223C23.165 30.5173 22.4238 30.8743 21.7007 31.1889C21.6824 31.0809 21.6645 30.972 21.6471 30.8623L21.6473 30.8624ZM27.812 33.4365C27.4252 33.4381 27.0476 33.5536 26.7277 33.7681C26.4079 33.9826 26.1603 34.2864 26.0166 34.6406C25.873 34.9947 25.84 35.383 25.9217 35.7558C26.0033 36.1286 26.1961 36.4688 26.4752 36.7329C26.3907 36.8647 26.3051 36.9862 26.2184 37.0977C25.9306 37.4662 25.4857 37.9074 25 37.9074C24.5143 37.9074 24.0694 37.467 23.7817 37.0977C23.3076 36.4887 22.8574 35.5619 22.4803 34.4171C22.3087 33.8958 22.1533 33.3378 22.0149 32.7486C21.9902 32.6436 21.9661 32.5377 21.9426 32.4306C23.0577 31.9574 24.2143 31.3873 25.3807 30.7352C25.5101 30.7865 25.6392 30.8368 25.7679 30.8862C26.5935 31.203 27.4082 31.4837 28.2023 31.7252C28.0884 32.3231 27.9583 32.8952 27.812 33.4365ZM28.5778 29.143C28.5299 29.6042 28.4735 30.0555 28.4087 30.4971C27.9904 30.3675 27.5665 30.2266 27.1369 30.0743C27.0082 30.0288 26.8791 29.9823 26.7496 29.9348C27.0894 29.7273 27.4289 29.5136 27.768 29.2938C28.0555 29.107 28.3391 28.9181 28.6188 28.7268C28.6059 28.8662 28.5922 29.005 28.5776 29.143H28.5778ZM28.749 26.7221C28.7438 26.8596 28.7377 26.9966 28.7309 27.133C28.1982 27.517 27.6476 27.8936 27.0792 28.2629C26.4828 28.6502 25.8838 29.018 25.2871 29.3638C25.1631 29.3125 25.0388 29.2604 24.9142 29.2074C24.3986 28.988 23.8811 28.7552 23.3617 28.5092C22.6484 28.1711 21.9548 27.8179 21.2862 27.4533C21.2428 26.7015 21.2212 25.932 21.2212 25.1517C21.2212 24.6226 21.2313 24.0991 21.2516 23.5813C21.2568 23.4438 21.2628 23.3068 21.2696 23.1704C21.8024 22.7865 22.3529 22.4098 22.9213 22.0405C23.5177 21.6532 24.1167 21.2854 24.7135 20.9396C24.8374 20.9909 24.9617 21.043 25.0864 21.096C25.602 21.3154 26.1195 21.5482 26.6389 21.7942C27.3522 22.1323 28.0458 22.4855 28.7143 22.8501C28.7577 23.602 28.7794 24.3715 28.7794 25.1517C28.7793 25.6808 28.7691 26.2043 28.7488 26.7221H28.749ZM29.4835 18.6296C30.1682 18.3688 30.8306 18.1507 31.4621 17.9794C32.4711 17.7057 33.3739 17.564 34.1005 17.564C34.2216 17.564 34.3378 17.5679 34.4488 17.5759C34.9202 17.6093 35.5379 17.7334 35.8048 18.1334C35.9376 18.3321 35.9727 18.582 35.9555 18.8384C35.9368 18.8384 35.918 18.8384 35.8991 18.8384C35.5334 18.8383 35.1751 18.94 34.8655 19.1317C34.5558 19.3235 34.3073 19.5975 34.1486 19.9223C33.9899 20.247 33.9275 20.6094 33.9684 20.9676C34.0094 21.3259 34.152 21.6654 34.3801 21.9472C34.3324 22.0076 34.2836 22.0683 34.2338 22.1294C33.7799 22.6903 33.2572 23.2611 32.6757 23.8359C32.3831 24.1253 32.076 24.415 31.7544 24.7051C31.2124 25.1943 30.6316 25.6826 30.018 26.1651C30.0215 26.0262 30.0241 25.8873 30.0258 25.7485C30.0287 25.5507 30.0302 25.3523 30.0302 25.1533C30.0302 24.6259 30.0204 24.1035 30.0008 23.5862C30.5136 23.8921 31.0066 24.2033 31.48 24.5197C31.8028 24.2297 32.1117 23.9399 32.4065 23.6502C31.6312 23.1214 30.7973 22.6044 29.9185 22.1056C29.8361 21.0093 29.709 19.9522 29.5401 18.954C29.5218 18.8449 29.5029 18.737 29.4834 18.6303L29.4835 18.6296Z" fill="white"/>
<path d="M24.9999 26.9634C26.0144 26.9634 26.8367 26.1527 26.8367 25.1526C26.8367 24.1525 26.0144 23.3418 24.9999 23.3418C23.9855 23.3418 23.1631 24.1525 23.1631 25.1526C23.1631 26.1527 23.9855 26.9634 24.9999 26.9634Z" fill="white"/>
</svg>
