<svg width="40" height="40" viewBox="0 0 40 40" fill="none" xmlns="http://www.w3.org/2000/svg">
<g clip-path="url(#clip0_153_895)">
<path d="M39.1445 8.22901C38.3922 4.83213 35.0992 1.72041 31.693 1.05947C29.618 0.644631 23.8289 0.132131 20 0.174319C16.1711 0.132131 10.382 0.644631 8.30703 1.05947C4.90078 1.72041 1.60781 4.83213 0.855469 8.22901C0.427344 10.2915 0.00625 13.0978 0 16.9282C0.00625 20.7587 0.427344 23.5642 0.855469 25.6267C1.60781 29.0235 4.90078 32.1353 8.30703 32.7962C9.42735 33.0204 11.6305 33.2728 14.0234 33.4509C14.2945 33.8767 14.5883 34.3298 14.9063 34.8103C16.1758 36.7329 17.1477 38.0728 17.8836 39.0063C19.1086 40.5603 20.8922 40.5603 22.1172 39.0063C22.8531 38.0728 23.8242 36.7329 25.0945 34.8103C25.4125 34.329 25.7055 33.8767 25.9773 33.4509C28.3703 33.2728 30.5734 33.0204 31.6945 32.7962C35.1008 32.1353 38.3938 29.0235 39.1461 25.6267C39.5742 23.5642 39.9953 20.7587 40.0016 16.9282C39.9953 13.0978 39.5742 10.2923 39.1461 8.22979L39.1445 8.22901ZM22.2086 28.5415C22.1242 29.0173 21.693 29.4485 21.2172 29.5329C20.9289 29.5806 20.5359 29.6259 19.9992 29.6267C19.4633 29.6267 19.0703 29.5814 18.7813 29.5329C18.3055 29.4485 17.8742 29.0173 17.7898 28.5415C17.7422 28.2532 17.6969 27.8603 17.6961 27.3235C17.6961 26.7876 17.7414 26.3946 17.7898 26.1056C17.8742 25.6298 18.3055 25.1985 18.7813 25.1142C19.0695 25.0665 19.4625 25.0212 19.9992 25.0204C20.5352 25.0204 20.9281 25.0657 21.2172 25.1142C21.693 25.1985 22.1242 25.6298 22.2086 26.1056C22.2563 26.3939 22.3016 26.7868 22.3023 27.3235C22.3023 27.8595 22.257 28.2524 22.2086 28.5415ZM26.9648 15.7454C26.3617 16.5985 25.4578 17.3774 24.1203 18.1954C22.4273 19.2392 22.1563 19.6681 22.1563 20.5079V20.8399C22.1563 22.0306 21.1875 22.9993 19.9969 22.9993C18.8063 22.9993 17.8375 22.0306 17.8375 20.8399V20.0704C17.8375 19.0798 18.0852 18.2392 18.5945 17.5009C19.0883 16.7853 19.8281 16.1493 20.9258 15.497C22.9484 14.3071 23.3188 13.6392 23.3188 12.7524C23.3188 11.6384 22.3695 10.9181 20.9016 10.9181C19.2922 10.9181 18.2445 11.6493 17.7875 13.0923C17.4859 14.0439 16.6047 14.6829 15.5953 14.6829C15.5391 14.6829 15.4828 14.6806 15.4266 14.6767C14.7141 14.6251 14.0758 14.2556 13.6758 13.6626C13.2797 13.0759 13.1758 12.3548 13.3906 11.6837C13.8828 10.1493 14.8266 8.87276 16.1195 7.99151C17.4289 7.09932 19.0828 6.62823 20.9008 6.62823C22.7188 6.62823 24.5414 7.23057 25.8352 8.32432C27.1664 9.4501 27.9 11.0017 27.9 12.6946C27.9 13.8571 27.5945 14.8556 26.9648 15.7454Z" fill="white"/>
</g>
<defs>
<clipPath id="clip0_153_895">
<rect width="40" height="39.5211" fill="white" transform="translate(0 0.148438)"/>
</clipPath>
</defs>
</svg>
