<svg width="25" height="25" viewBox="0 0 25 25" fill="none" xmlns="http://www.w3.org/2000/svg">
<path d="M19 2.75586H6.00002C5.70031 2.76409 5.40674 2.84273 5.14306 2.98543C4.87938 3.12813 4.65297 3.33088 4.48216 3.57729L1.23216 8.07729C0.990832 8.41831 0.870311 8.83017 0.889721 9.24749C0.909132 9.66482 1.06736 10.0637 1.3393 10.3809L11.0893 21.613C11.2562 21.8281 11.4701 22.0021 11.7146 22.1219C11.9591 22.2416 12.2278 22.3039 12.5 22.3039C12.7723 22.3039 13.0409 22.2416 13.2854 22.1219C13.5299 22.0021 13.7438 21.8281 13.9107 21.613L23.6607 10.3809C23.9327 10.0637 24.0909 9.66482 24.1103 9.24749C24.1297 8.83017 24.0092 8.41831 23.7679 8.07729L20.5179 3.57729C20.3471 3.33088 20.1207 3.12813 19.857 2.98543C19.5933 2.84273 19.2997 2.76409 19 2.75586V2.75586Z" stroke="white" stroke-width="1.5" stroke-linecap="round" stroke-linejoin="round"/>
<path d="M11.5715 2.73828L7.21436 9.48828L12.5001 22.2561" stroke="white" stroke-width="1.5" stroke-linecap="round" stroke-linejoin="round"/>
<path d="M13.4821 2.73828L17.8214 9.48828L12.5 22.2561" stroke="white" stroke-width="1.5" stroke-linecap="round" stroke-linejoin="round"/>
<path d="M0.928711 9.48828H24.0716" stroke="white" stroke-width="1.5" stroke-linecap="round" stroke-linejoin="round"/>
</svg>
