<svg width="34" height="35" viewBox="0 0 34 35" fill="none" xmlns="http://www.w3.org/2000/svg">
<path d="M31.6897 2.95117H2.31021C1.07299 2.95117 0.0664062 3.95776 0.0664062 5.19504V25.8109C0.0664062 27.0481 1.07299 28.0547 2.31021 28.0547H9.89427L8.26871 30.8442C8.12301 31.0941 8.12109 31.3915 8.26366 31.6397C8.40663 31.8886 8.67252 32.0432 8.95754 32.0432H25.0425C25.3274 32.0432 25.5933 31.8886 25.7363 31.6397C25.8788 31.3916 25.8771 31.0943 25.7314 30.8443L24.1059 28.0547H31.6897C32.927 28.0547 33.9336 27.0481 33.9336 25.8109V5.19504C33.9336 3.95776 32.927 2.95117 31.6897 2.95117ZM2.31021 4.01367H31.6897C32.3412 4.01367 32.8711 4.54359 32.8711 5.19504V24.1247H1.12891V5.19504C1.12891 4.54366 1.65883 4.01367 2.31021 4.01367ZM24.5811 30.9807H9.41886L11.124 28.0547H22.876L24.5811 30.9807ZM31.6897 26.9922H2.31021C1.65883 26.9922 1.12891 26.4622 1.12891 25.8109V25.1871H32.8711V25.8109C32.8711 26.4622 32.3412 26.9922 31.6897 26.9922ZM5.16136 16.0851C6.08905 16.0851 6.87198 15.455 7.1058 14.6005H10.2517V16.4753H8.92048C8.75261 16.4753 8.59456 16.5547 8.49429 16.6894L7.13276 18.519C6.90499 18.4295 6.65743 18.3799 6.39831 18.3799C5.28673 18.3799 4.38241 19.2842 4.38241 20.3958C4.38241 21.5073 5.28673 22.4117 6.39831 22.4117C7.50988 22.4117 8.4142 21.5073 8.4142 20.3958C8.4142 19.9276 8.2533 19.4965 7.98455 19.154L9.18731 17.5378H10.2516V18.69C10.2516 19.8631 11.206 20.8175 12.3791 20.8175H16.7237C16.7796 20.977 16.8856 21.1172 17.0326 21.2157C17.2894 21.388 17.6149 21.399 17.882 21.2448L18.2852 21.012L19.526 23.1609C19.6441 23.3656 19.8352 23.5123 20.0641 23.5736C20.1406 23.5941 20.2183 23.6042 20.2954 23.6042C20.4489 23.6042 20.6003 23.5641 20.7365 23.4854L21.8884 22.8203C22.3116 22.5759 22.4571 22.0329 22.2128 21.6097L21.7528 20.813C22.8647 20.7445 23.7483 19.8187 23.7483 18.69V17.5378H24.8127L26.0154 19.154C25.7466 19.4966 25.5857 19.9276 25.5857 20.3958C25.5857 21.5073 26.4901 22.4117 27.6017 22.4117C28.7133 22.4117 29.6176 21.5073 29.6176 20.3958C29.6176 19.2842 28.7133 18.3799 27.6017 18.3799C27.3426 18.3799 27.095 18.4295 26.8672 18.519L25.5058 16.6894C25.4055 16.5546 25.2475 16.4753 25.0796 16.4753H23.7483V14.6004H26.8943C27.128 15.455 27.9109 16.0851 28.8386 16.0851C29.9502 16.0851 30.8545 15.1807 30.8545 14.0692C30.8545 12.9576 29.9502 12.0532 28.8386 12.0532C27.9109 12.0532 27.128 12.6833 26.8943 13.5379H23.7483V11.663H25.0796C25.2475 11.663 25.4055 11.5837 25.5058 11.4489L26.8672 9.61936C27.095 9.70881 27.3426 9.75848 27.6018 9.75848C28.7133 9.75848 29.6177 8.85416 29.6177 7.74258C29.6177 6.63101 28.7133 5.72669 27.6018 5.72669C26.4902 5.72669 25.5858 6.63101 25.5858 7.74258C25.5858 8.21075 25.7467 8.64179 26.0154 8.98438L24.8128 10.6006H23.7484V9.44836C23.7484 8.27523 22.794 7.32084 21.6209 7.32084H12.3791C11.206 7.32084 10.2516 8.27523 10.2516 9.44836V10.6006H9.18731L7.98462 8.98438C8.25337 8.64179 8.41427 8.21075 8.41427 7.74258C8.41427 6.63101 7.50995 5.72669 6.39838 5.72669C5.2868 5.72669 4.38248 6.63101 4.38248 7.74258C4.38248 8.85416 5.2868 9.75848 6.39838 9.75848C6.65749 9.75848 6.90506 9.70881 7.13283 9.61936L8.49436 11.4489C8.59463 11.5837 8.75268 11.663 8.92055 11.663H10.2517V13.5379H7.10587C6.87205 12.6833 6.08912 12.0532 5.16143 12.0532C4.04985 12.0532 3.14553 12.9576 3.14553 14.0692C3.14553 15.1807 4.04972 16.0851 5.16136 16.0851ZM6.39831 21.3492C5.87257 21.3492 5.44491 20.9216 5.44491 20.3958C5.44491 19.8701 5.87257 19.4424 6.39831 19.4424C6.92405 19.4424 7.3517 19.8702 7.3517 20.3958C7.3517 20.9215 6.92405 21.3492 6.39831 21.3492ZM28.5552 20.3958C28.5552 20.9216 28.1275 21.3492 27.6018 21.3492C27.076 21.3492 26.6483 20.9216 26.6483 20.3958C26.6483 19.8701 27.076 19.4424 27.6018 19.4424C28.1275 19.4424 28.5552 19.8701 28.5552 20.3958ZM28.8386 13.1157C29.3643 13.1157 29.792 13.5434 29.792 14.0692C29.792 14.5949 29.3643 15.0226 28.8386 15.0226C28.3128 15.0226 27.8852 14.5949 27.8852 14.0692C27.8852 13.5434 28.3128 13.1157 28.8386 13.1157ZM27.6017 6.78912C28.1274 6.78912 28.5551 7.21678 28.5551 7.74252C28.5551 8.26825 28.1274 8.69591 27.6017 8.69591C27.076 8.69591 26.6482 8.26825 26.6482 7.74252C26.6482 7.21678 27.076 6.78912 27.6017 6.78912ZM17 17.5572C15.0767 17.5572 13.512 15.9925 13.512 14.0692C13.512 12.1458 15.0767 10.5812 17 10.5812C18.9233 10.5812 20.4879 12.1458 20.4879 14.0692C20.4879 15.1924 19.9591 16.2249 19.062 16.8817L18.2269 16.539C17.9951 16.444 17.738 16.4614 17.5212 16.5865C17.3045 16.7117 17.1611 16.9258 17.1276 17.1738L17.076 17.5558C17.0507 17.5564 17.0253 17.5572 17 17.5572ZM20.358 22.4771L18.9397 20.0206C18.8414 19.8502 18.6628 19.7549 18.4791 19.7549C18.3891 19.7549 18.2977 19.7779 18.214 19.8262L17.8099 20.0595L18.1354 17.65L20.3849 18.5728L19.9807 18.8061C19.8587 18.8766 19.7697 18.9926 19.7331 19.1287C19.6967 19.2648 19.7157 19.4098 19.7863 19.5318L21.2044 21.9883L20.358 22.4771ZM11.3141 9.44829C11.3141 8.86106 11.7918 8.38327 12.3791 8.38327H21.6208C22.2081 8.38327 22.6858 8.86106 22.6858 9.44829V18.69C22.6858 19.2772 22.2081 19.755 21.6208 19.755H21.1421L20.9722 19.4606L21.3751 19.228C21.6424 19.0738 21.7957 18.7864 21.7749 18.4778C21.7544 18.1712 21.5642 17.9081 21.2787 17.791L20.1694 17.3359C21.0465 16.4885 21.5504 15.3219 21.5504 14.0691C21.5504 11.5599 19.5091 9.51862 17 9.51862C14.4908 9.51862 12.4495 11.5599 12.4495 14.0691C12.4495 16.5556 14.4545 18.5815 16.9326 18.6179L16.7789 19.7549H12.3792C11.7919 19.7549 11.3142 19.2771 11.3142 18.6899V9.44829H11.3141ZM5.44485 7.74258C5.44485 7.21684 5.8725 6.78919 6.39824 6.78919C6.92398 6.78919 7.35164 7.21684 7.35164 7.74258C7.35164 8.26832 6.92398 8.69598 6.39824 8.69598C5.8725 8.69598 5.44485 8.26832 5.44485 7.74258ZM5.16136 13.1157C5.6871 13.1157 6.11482 13.5434 6.11482 14.0692C6.11482 14.5949 5.6871 15.0226 5.16136 15.0226C4.63562 15.0226 4.20796 14.5949 4.20796 14.0692C4.20796 13.5434 4.63562 13.1157 5.16136 13.1157ZM19.1848 13.272L16.8644 15.6141C16.7605 15.7189 16.6238 15.7715 16.4869 15.7715C16.3531 15.7715 16.2194 15.7213 16.1161 15.6207L14.8217 14.359C14.6116 14.1542 14.6073 13.8179 14.8121 13.6078C15.0169 13.3977 15.3532 13.3934 15.5633 13.5982L16.4804 14.492L18.4299 12.5242C18.6364 12.3156 18.9727 12.3142 19.1812 12.5206C19.3897 12.7272 19.3913 13.0636 19.1848 13.272Z" fill="white"/>
</svg>
