<svg width="25" height="25" viewBox="0 0 25 25" fill="none" xmlns="http://www.w3.org/2000/svg">
<g clip-path="url(#clip0_153_320)">
<path d="M10.7139 11.6074H12.4996V19.6431" stroke="white" stroke-width="1.5" stroke-linecap="round" stroke-linejoin="round"/>
<path d="M9.82129 19.6426H15.1784" stroke="white" stroke-width="1.5" stroke-linecap="round" stroke-linejoin="round"/>
<path d="M2.67829 4.46484C2.20469 4.46484 1.75049 4.65298 1.4156 4.98787C1.08072 5.32275 0.892578 5.77696 0.892578 6.25056V22.322C0.892578 22.7956 1.08072 23.2498 1.4156 23.5847C1.75049 23.9196 2.20469 24.1077 2.67829 24.1077H22.3211C22.7948 24.1077 23.249 23.9196 23.5838 23.5847C23.9187 23.2498 24.1069 22.7956 24.1069 22.322V6.25056C24.1069 5.77696 23.9187 5.32275 23.5838 4.98787C23.249 4.65298 22.7948 4.46484 22.3211 4.46484H18.7497" stroke="white" stroke-width="1.5" stroke-linecap="round" stroke-linejoin="round"/>
<path d="M6.24951 0.892578V8.03544" stroke="white" stroke-width="1.5" stroke-linecap="round" stroke-linejoin="round"/>
<path d="M18.7495 0.892578V8.03544" stroke="white" stroke-width="1.5" stroke-linecap="round" stroke-linejoin="round"/>
<path d="M6.25 4.46484H15.1786" stroke="white" stroke-width="1.5" stroke-linecap="round" stroke-linejoin="round"/>
</g>
<defs>
<clipPath id="clip0_153_320">
<rect width="25" height="25" fill="white"/>
</clipPath>
</defs>
</svg>
