<svg width="48" height="49" viewBox="0 0 48 49" fill="none" xmlns="http://www.w3.org/2000/svg">
<path d="M23.5545 32.6208C32.0755 32.6208 38.9831 25.7132 38.9831 17.1922C38.9831 8.67128 32.0755 1.76367 23.5545 1.76367C15.0336 1.76367 8.12598 8.67128 8.12598 17.1922C8.12598 25.7132 15.0336 32.6208 23.5545 32.6208Z" stroke="white" stroke-width="1.5" stroke-linecap="round" stroke-linejoin="round"/>
<path d="M23.5544 24.0502C27.3415 24.0502 30.4116 20.9802 30.4116 17.1931C30.4116 13.406 27.3415 10.3359 23.5544 10.3359C19.7673 10.3359 16.6973 13.406 16.6973 17.1931C16.6973 20.9802 19.7673 24.0502 23.5544 24.0502Z" stroke="white" stroke-width="1.5" stroke-linecap="round" stroke-linejoin="round"/>
<path d="M20.5716 32.3471L17.5545 45.0328C17.4948 45.2739 17.3844 45.4995 17.2307 45.6946C17.077 45.8897 16.8835 46.0498 16.6631 46.1642C16.4304 46.2652 16.1795 46.3173 15.9259 46.3173C15.6723 46.3173 15.4214 46.2652 15.1888 46.1642L3.80591 41.1928C3.56715 41.0799 3.35706 40.9144 3.19141 40.7087C3.02576 40.503 2.90885 40.2625 2.84947 40.0052C2.79008 39.7478 2.78976 39.4804 2.84852 39.2229C2.90729 38.9654 3.02362 38.7246 3.18877 38.5185L12.0002 27.4785" stroke="white" stroke-width="1.5" stroke-linecap="round" stroke-linejoin="round"/>
<path d="M27.4287 32.1747L30.5144 45.0319C30.5758 45.2771 30.6906 45.5056 30.8506 45.7012C31.0107 45.8968 31.212 46.0546 31.4401 46.1633C31.6664 46.2656 31.9118 46.3184 32.1601 46.3184C32.4084 46.3184 32.6539 46.2656 32.8801 46.1633L44.1944 41.1919C44.4368 41.0804 44.6498 40.9138 44.8164 40.7055C44.9831 40.4972 45.0988 40.2528 45.1544 39.9919C45.2194 39.7366 45.2222 39.4695 45.1625 39.213C45.1029 38.9564 44.9825 38.718 44.8116 38.5176L35.623 26.8262" stroke="white" stroke-width="1.5" stroke-linecap="round" stroke-linejoin="round"/>
</svg>
