<svg width="48" height="49" viewBox="0 0 48 49" fill="none" xmlns="http://www.w3.org/2000/svg">
<path d="M15.4286 44.62C23.0028 44.62 29.1429 38.4799 29.1429 30.9057C29.1429 23.3315 23.0028 17.1914 15.4286 17.1914C7.85445 17.1914 1.71436 23.3315 1.71436 30.9057C1.71436 38.4799 7.85445 44.62 15.4286 44.62Z" stroke="white" stroke-width="1.5" stroke-linecap="round" stroke-linejoin="round"/>
<path d="M32.5717 44.62C40.1459 44.62 46.286 38.4799 46.286 30.9057C46.286 23.3315 40.1459 17.1914 32.5717 17.1914C24.9975 17.1914 18.8574 23.3315 18.8574 30.9057C18.8574 38.4799 24.9975 44.62 32.5717 44.62Z" stroke="white" stroke-width="1.5" stroke-linecap="round" stroke-linejoin="round"/>
<path d="M23.9999 30.9051C31.5741 30.9051 37.7142 24.765 37.7142 17.1908C37.7142 9.61666 31.5741 3.47656 23.9999 3.47656C16.4257 3.47656 10.2856 9.61666 10.2856 17.1908C10.2856 24.765 16.4257 30.9051 23.9999 30.9051Z" stroke="white" stroke-width="1.5" stroke-linecap="round" stroke-linejoin="round"/>
</svg>
