<svg width="48" height="49" viewBox="0 0 48 49" fill="none" xmlns="http://www.w3.org/2000/svg">
<path d="M36.4798 5.33008H11.5198C10.9443 5.34588 10.3807 5.49688 9.8744 5.77086C9.36813 6.04484 8.93343 6.43412 8.60547 6.90722L2.36547 15.5472C1.90212 16.202 1.67072 16.9928 1.70799 17.794C1.74526 18.5953 2.04906 19.3611 2.57119 19.9701L21.2912 41.5358C21.6117 41.9487 22.0223 42.2829 22.4918 42.5129C22.9612 42.7428 23.477 42.8623 23.9998 42.8623C24.5225 42.8623 25.0383 42.7428 25.5077 42.5129C25.9772 42.2829 26.3878 41.9487 26.7083 41.5358L45.4283 19.9701C45.9505 19.3611 46.2543 18.5953 46.2915 17.794C46.3288 16.9928 46.0974 16.202 45.634 15.5472L39.394 6.90722C39.0661 6.43412 38.6314 6.04484 38.1251 5.77086C37.6188 5.49688 37.0552 5.34588 36.4798 5.33008V5.33008Z" stroke="white" stroke-width="1.5" stroke-linecap="round" stroke-linejoin="round"/>
<path d="M22.2168 5.29492L13.8511 18.2549L23.9996 42.7692" stroke="white" stroke-width="1.5" stroke-linecap="round" stroke-linejoin="round"/>
<path d="M25.8857 5.29492L34.2171 18.2549L24 42.7692" stroke="white" stroke-width="1.5" stroke-linecap="round" stroke-linejoin="round"/>
<path d="M1.78271 18.2559H46.217" stroke="white" stroke-width="1.5" stroke-linecap="round" stroke-linejoin="round"/>
</svg>
