<svg width="40" height="40" viewBox="0 0 40 40" fill="none" xmlns="http://www.w3.org/2000/svg">
<path d="M9.28488 16.7143C13.6243 16.7143 17.142 13.1965 17.142 8.85714C17.142 4.51776 13.6243 1 9.28488 1C4.9455 1 1.42773 4.51776 1.42773 8.85714C1.42773 13.1965 4.9455 16.7143 9.28488 16.7143Z" stroke="#0C5ADB" stroke-width="1.5" stroke-linecap="round" stroke-linejoin="round"/>
<path d="M30.7126 16.7143C35.052 16.7143 38.5698 13.1965 38.5698 8.85714C38.5698 4.51776 35.052 1 30.7126 1C26.3732 1 22.8555 4.51776 22.8555 8.85714C22.8555 13.1965 26.3732 16.7143 30.7126 16.7143Z" stroke="#0C5ADB" stroke-width="1.5" stroke-linecap="round" stroke-linejoin="round"/>
<path d="M9.28488 38.144C13.6243 38.144 17.142 34.6262 17.142 30.2868C17.142 25.9474 13.6243 22.4297 9.28488 22.4297C4.9455 22.4297 1.42773 25.9474 1.42773 30.2868C1.42773 34.6262 4.9455 38.144 9.28488 38.144Z" stroke="#0C5ADB" stroke-width="1.5" stroke-linecap="round" stroke-linejoin="round"/>
<path d="M30.7126 38.144C35.052 38.144 38.5698 34.6262 38.5698 30.2868C38.5698 25.9474 35.052 22.4297 30.7126 22.4297C26.3732 22.4297 22.8555 25.9474 22.8555 30.2868C22.8555 34.6262 26.3732 38.144 30.7126 38.144Z" stroke="#0C5ADB" stroke-width="1.5" stroke-linecap="round" stroke-linejoin="round"/>
</svg>
