<svg width="34" height="34" viewBox="0 0 34 34" fill="none" xmlns="http://www.w3.org/2000/svg">
<g clip-path="url(#clip0_153_169)">
<path d="M17.0001 23.8577C20.3533 23.8577 23.0716 21.1394 23.0716 17.7863C23.0716 14.4331 20.3533 11.7148 17.0001 11.7148C13.647 11.7148 10.9287 14.4331 10.9287 17.7863C10.9287 21.1394 13.647 23.8577 17.0001 23.8577Z" stroke="#0C5ADB" stroke-width="1.5" stroke-linecap="round" stroke-linejoin="round"/>
<path d="M32.7858 17.7857L27.1029 21.9629L28.1715 28.9571L21.1772 27.8886L17.0001 33.5714L12.8229 27.8886L5.82864 28.9571L6.89721 21.9629L1.21436 17.7857L6.89721 13.6086L5.82864 6.61429L12.8229 7.68286L17.0001 2L21.1772 7.68286L28.1715 6.61429L27.1029 13.6086L32.7858 17.7857Z" stroke="#0C5ADB" stroke-width="1.5" stroke-linecap="round" stroke-linejoin="round"/>
</g>
<defs>
<clipPath id="clip0_153_169">
<rect width="34" height="34" fill="white"/>
</clipPath>
</defs>
</svg>
