<svg width="25" height="25" viewBox="0 0 25 25" fill="none" xmlns="http://www.w3.org/2000/svg">
<path d="M8.03544 23.2134C11.9803 23.2134 15.1783 20.0155 15.1783 16.0706C15.1783 12.1257 11.9803 8.92773 8.03544 8.92773C4.09054 8.92773 0.892578 12.1257 0.892578 16.0706C0.892578 20.0155 4.09054 23.2134 8.03544 23.2134Z" stroke="white" stroke-width="1.5" stroke-linecap="round" stroke-linejoin="round"/>
<path d="M16.9641 23.2134C20.909 23.2134 24.107 20.0155 24.107 16.0706C24.107 12.1257 20.909 8.92773 16.9641 8.92773C13.0193 8.92773 9.82129 12.1257 9.82129 16.0706C9.82129 20.0155 13.0193 23.2134 16.9641 23.2134Z" stroke="white" stroke-width="1.5" stroke-linecap="round" stroke-linejoin="round"/>
<path d="M12.4998 16.0709C16.4447 16.0709 19.6426 12.8729 19.6426 8.92801C19.6426 4.98312 16.4447 1.78516 12.4998 1.78516C8.5549 1.78516 5.35693 4.98312 5.35693 8.92801C5.35693 12.8729 8.5549 16.0709 12.4998 16.0709Z" stroke="white" stroke-width="1.5" stroke-linecap="round" stroke-linejoin="round"/>
</svg>
