<svg width="34" height="35" viewBox="0 0 34 35" fill="none" xmlns="http://www.w3.org/2000/svg">
<path d="M33.7349 11.5754L28.9531 8.80701V2.47267C28.9531 2.17927 28.7153 1.94142 28.4219 1.94142H24.1719C23.8785 1.94142 23.6406 2.17927 23.6406 2.47267V5.79034L17.2708 2.01564C17.1053 1.91754 16.8996 1.91659 16.7332 2.01326L0.264488 11.5758C0.100746 11.6708 0 11.8458 0 12.0352V14.6914C0 14.9848 0.237841 15.2227 0.53125 15.2227H2.92188V32.7539C2.92188 33.0473 3.15972 33.2852 3.45312 33.2852H30.5469C30.8403 33.2852 31.0781 33.0473 31.0781 32.7539V15.2227H33.4688C33.7621 15.2227 34 14.9848 34 14.6914V12.0352C34 11.8456 33.899 11.6704 33.7349 11.5754ZM32.9375 14.1602H30.5469C30.2535 14.1602 30.0156 14.398 30.0156 14.6914V32.2227H3.98438V14.6914C3.98438 14.398 3.7465 14.1602 3.45312 14.1602H1.0625V12.341L16.9972 3.08856L23.901 7.1797C24.0652 7.27697 24.269 7.27872 24.4349 7.18426C24.6007 7.08976 24.7031 6.91354 24.7031 6.72267V3.00392H27.8906V9.1133C27.8906 9.30287 27.9916 9.47808 28.1557 9.57305L32.9375 12.3414V14.1602Z" fill="white"/>
<path d="M27.3594 13.8945H6.64062C6.34722 13.8945 6.10938 14.1324 6.10938 14.4258V17.6133C6.10938 17.9067 6.34722 18.1445 6.64062 18.1445H7.4375V20.0039C7.4375 25.197 11.8093 29.5664 17 29.5664C22.1815 29.5664 26.5625 25.2014 26.5625 20.0039V18.1445H27.3594C27.6528 18.1445 27.8906 17.9067 27.8906 17.6133V14.4258C27.8906 14.1324 27.6528 13.8945 27.3594 13.8945ZM13.2812 27.6461V23.9883C13.2812 21.9378 14.9495 20.2695 17 20.2695C19.0505 20.2695 20.7188 21.9378 20.7188 23.9883V27.6461C19.5948 28.1952 18.3328 28.5039 17 28.5039C15.6671 28.5039 14.4052 28.1952 13.2812 27.6461ZM25.5 20.0039C25.5 22.9192 24.0245 25.4962 21.7812 27.028V23.9883C21.7812 21.3519 19.6364 19.207 17 19.207C14.3636 19.207 12.2188 21.3519 12.2188 23.9883V27.028C9.97549 25.4962 8.5 22.9192 8.5 20.0039V18.1445H25.5V20.0039ZM26.8281 17.082H7.17188V14.957H26.8281V17.082Z" fill="white"/>
<path d="M17 21.8633C15.6818 21.8633 14.6094 22.9357 14.6094 24.2539C14.6094 25.5721 15.6818 26.6445 17 26.6445C18.3182 26.6445 19.3906 25.5721 19.3906 24.2539C19.3906 22.9357 18.3182 21.8633 17 21.8633ZM17 25.582C16.2677 25.582 15.6719 24.9862 15.6719 24.2539C15.6719 23.5216 16.2677 22.9258 17 22.9258C17.7323 22.9258 18.3281 23.5216 18.3281 24.2539C18.3281 24.9862 17.7323 25.582 17 25.582Z" fill="white"/>
</svg>
