<svg width="34" height="34" viewBox="0 0 34 34" fill="none" xmlns="http://www.w3.org/2000/svg">
<path d="M17 32.5185C18.5946 32.5185 20.1736 32.2045 21.6469 31.5942C23.1201 30.984 24.4587 30.0895 25.5863 28.962C26.7139 27.8344 27.6083 26.4958 28.2185 25.0226C28.8288 23.5493 29.1429 21.9703 29.1429 20.3757V13.6243C29.143 10.6412 28.0451 7.76246 26.0586 5.53711" stroke="#0C5ADB" stroke-width="1.5" stroke-linecap="round" stroke-linejoin="round"/>
<path d="M4.85742 16.3203V20.376C4.85661 22.7664 5.56135 25.1039 6.88333 27.0955C8.2053 29.0871 10.0857 30.6443 12.2889 31.5717" stroke="#0C5ADB" stroke-width="1.5" stroke-linecap="round" stroke-linejoin="round"/>
<path d="M23.0715 3.10923C20.2826 1.49906 16.9682 1.06271 13.8575 1.89617C10.7469 2.72963 8.09468 4.76463 6.48438 7.55352C5.82133 8.69866 5.35351 9.94618 5.1001 11.2449" stroke="#0C5ADB" stroke-width="1.5" stroke-linecap="round" stroke-linejoin="round"/>
<path d="M15.7373 8.5257C16.6305 8.34026 17.554 8.35768 18.4396 8.57665C19.3252 8.79563 20.1503 9.21059 20.8542 9.79093C21.5581 10.3713 22.1227 11.1022 22.5065 11.9298C22.8903 12.7574 23.0834 13.6607 23.0716 14.5728V18.4828" stroke="#0C5ADB" stroke-width="1.5" stroke-linecap="round" stroke-linejoin="round"/>
<path d="M21.5176 23.5811C20.6913 24.5016 19.6035 25.1477 18.3999 25.433C17.1964 25.7182 15.9344 25.6291 14.7828 25.1775C13.6313 24.7258 12.6452 23.9333 11.9565 22.9058C11.2677 21.8784 10.9093 20.6651 10.929 19.4283V14.5711C10.9244 13.737 11.0896 12.9107 11.4147 12.1426" stroke="#0C5ADB" stroke-width="1.5" stroke-linecap="round" stroke-linejoin="round"/>
<path d="M17 14.8398V18.8956" stroke="#0C5ADB" stroke-width="1.5" stroke-linecap="round" stroke-linejoin="round"/>
</svg>
