<svg width="25" height="25" viewBox="0 0 25 25" fill="none" xmlns="http://www.w3.org/2000/svg">
<g clip-path="url(#clip0_522_3427)">
<path d="M5.80134 10.716C8.51345 10.716 10.7121 8.51736 10.7121 5.80525C10.7121 3.09313 8.51345 0.894531 5.80134 0.894531C3.08923 0.894531 0.890625 3.09313 0.890625 5.80525C0.890625 8.51736 3.08923 10.716 5.80134 10.716Z" stroke="white" stroke-width="1.5" stroke-linecap="round" stroke-linejoin="round"/>
<path d="M19.192 10.716C21.9041 10.716 24.1027 8.51736 24.1027 5.80525C24.1027 3.09313 21.9041 0.894531 19.192 0.894531C16.4799 0.894531 14.2812 3.09313 14.2812 5.80525C14.2812 8.51736 16.4799 10.716 19.192 10.716Z" stroke="white" stroke-width="1.5" stroke-linecap="round" stroke-linejoin="round"/>
<path d="M5.80134 24.1105C8.51345 24.1105 10.7121 21.9119 10.7121 19.1998C10.7121 16.4877 8.51345 14.2891 5.80134 14.2891C3.08923 14.2891 0.890625 16.4877 0.890625 19.1998C0.890625 21.9119 3.08923 24.1105 5.80134 24.1105Z" stroke="white" stroke-width="1.5" stroke-linecap="round" stroke-linejoin="round"/>
<path d="M19.192 24.1105C21.9041 24.1105 24.1027 21.9119 24.1027 19.1998C24.1027 16.4877 21.9041 14.2891 19.192 14.2891C16.4799 14.2891 14.2812 16.4877 14.2812 19.1998C14.2812 21.9119 16.4799 24.1105 19.192 24.1105Z" stroke="white" stroke-width="1.5" stroke-linecap="round" stroke-linejoin="round"/>
</g>
<defs>
<clipPath id="clip0_522_3427">
<rect width="25" height="25" fill="white"/>
</clipPath>
</defs>
</svg>
