<svg width="24" height="24" viewBox="0 0 24 24" fill="none" xmlns="http://www.w3.org/2000/svg">
<g clip-path="url(#clip0_153_76)">
<path d="M7.71456 0.857422H2.57171C1.62493 0.857422 0.857422 1.62493 0.857422 2.57171V7.71456C0.857422 8.66134 1.62493 9.42885 2.57171 9.42885H7.71456C8.66134 9.42885 9.42885 8.66134 9.42885 7.71456V2.57171C9.42885 1.62493 8.66134 0.857422 7.71456 0.857422Z" stroke="white" stroke-width="1.5" stroke-linecap="round" stroke-linejoin="round"/>
<path d="M21.4289 0.857422H16.2861C15.3393 0.857422 14.5718 1.62493 14.5718 2.57171V7.71456C14.5718 8.66134 15.3393 9.42885 16.2861 9.42885H21.4289C22.3757 9.42885 23.1432 8.66134 23.1432 7.71456V2.57171C23.1432 1.62493 22.3757 0.857422 21.4289 0.857422Z" stroke="white" stroke-width="1.5" stroke-linecap="round" stroke-linejoin="round"/>
<path d="M7.71456 14.5723H2.57171C1.62493 14.5723 0.857422 15.3398 0.857422 16.2866V21.4294C0.857422 22.3762 1.62493 23.1437 2.57171 23.1437H7.71456C8.66134 23.1437 9.42885 22.3762 9.42885 21.4294V16.2866C9.42885 15.3398 8.66134 14.5723 7.71456 14.5723Z" stroke="white" stroke-width="1.5" stroke-linecap="round" stroke-linejoin="round"/>
<path d="M21.4289 14.5723H16.2861C15.3393 14.5723 14.5718 15.3398 14.5718 16.2866V21.4294C14.5718 22.3762 15.3393 23.1437 16.2861 23.1437H21.4289C22.3757 23.1437 23.1432 22.3762 23.1432 21.4294V16.2866C23.1432 15.3398 22.3757 14.5723 21.4289 14.5723Z" stroke="white" stroke-width="1.5" stroke-linecap="round" stroke-linejoin="round"/>
</g>
<defs>
<clipPath id="clip0_153_76">
<rect width="24" height="24" fill="white"/>
</clipPath>
</defs>
</svg>
