<svg width="34" height="34" viewBox="0 0 34 34" fill="none" xmlns="http://www.w3.org/2000/svg">
<g clip-path="url(#clip0_158_44)">
<path d="M17.0001 23.0725C20.3533 23.0725 23.0716 20.3543 23.0716 17.0011C23.0716 13.648 20.3533 10.9297 17.0001 10.9297C13.647 10.9297 10.9287 13.648 10.9287 17.0011C10.9287 20.3543 13.647 23.0725 17.0001 23.0725Z" stroke="#0C5ADB" stroke-width="1.5" stroke-linecap="round" stroke-linejoin="round"/>
<path d="M32.7858 17.0006L27.1029 21.1777L28.1715 28.172L21.1772 27.1034L17.0001 32.7863L12.8229 27.1034L5.82864 28.172L6.89721 21.1777L1.21436 17.0006L6.89721 12.8234L5.82864 5.82913L12.8229 6.8977L17.0001 1.21484L21.1772 6.8977L28.1715 5.82913L27.1029 12.8234L32.7858 17.0006Z" stroke="#0C5ADB" stroke-width="1.5" stroke-linecap="round" stroke-linejoin="round"/>
</g>
<defs>
<clipPath id="clip0_158_44">
<rect width="34" height="34" fill="white"/>
</clipPath>
</defs>
</svg>
