<svg width="34" height="34" viewBox="0 0 34 34" fill="none" xmlns="http://www.w3.org/2000/svg">
<path d="M25.8398 3.73828H8.15979C7.75219 3.74947 7.35294 3.85643 6.99433 4.0505C6.63572 4.24457 6.32781 4.52031 6.0955 4.85542L1.6755 10.9754C1.3473 11.4392 1.18339 11.9993 1.20979 12.5669C1.23618 13.1345 1.45138 13.677 1.82122 14.1083L15.0812 29.384C15.3082 29.6765 15.5991 29.9132 15.9316 30.0761C16.2642 30.2389 16.6295 30.3236 16.9998 30.3236C17.3701 30.3236 17.7354 30.2389 18.0679 30.0761C18.4005 29.9132 18.6914 29.6765 18.9184 29.384L32.1784 14.1083C32.5482 13.677 32.7634 13.1345 32.7898 12.5669C32.8162 11.9993 32.6523 11.4392 32.3241 10.9754L27.9041 4.85542C27.6718 4.52031 27.3639 4.24457 27.0053 4.0505C26.6466 3.85643 26.2474 3.74947 25.8398 3.73828V3.73828Z" stroke="#0C5ADB" stroke-width="1.5" stroke-linecap="round" stroke-linejoin="round"/>
<path d="M15.7367 3.71484L9.81104 12.8948L16.9996 30.2591" stroke="#0C5ADB" stroke-width="1.5" stroke-linecap="round" stroke-linejoin="round"/>
<path d="M18.3357 3.71484L24.2371 12.8948L17 30.2591" stroke="#0C5ADB" stroke-width="1.5" stroke-linecap="round" stroke-linejoin="round"/>
<path d="M1.2627 12.8945H32.737" stroke="#0C5ADB" stroke-width="1.5" stroke-linecap="round" stroke-linejoin="round"/>
</svg>
