<svg width="30" height="30" viewBox="0 0 30 30" fill="none" xmlns="http://www.w3.org/2000/svg">
<path d="M14.7215 20.358C20.0471 20.358 24.3643 16.0407 24.3643 10.7151C24.3643 5.38952 20.0471 1.07227 14.7215 1.07227C9.39587 1.07227 5.07861 5.38952 5.07861 10.7151C5.07861 16.0407 9.39587 20.358 14.7215 20.358Z" stroke="white" stroke-width="1.5" stroke-linecap="round" stroke-linejoin="round"/>
<path d="M14.7213 15.0011C17.0882 15.0011 19.007 13.0823 19.007 10.7154C19.007 8.34847 17.0882 6.42969 14.7213 6.42969C12.3543 6.42969 10.4355 8.34847 10.4355 10.7154C10.4355 13.0823 12.3543 15.0011 14.7213 15.0011Z" stroke="white" stroke-width="1.5" stroke-linecap="round" stroke-linejoin="round"/>
<path d="M12.8573 20.1874L10.9716 28.116C10.9342 28.2666 10.8652 28.4076 10.7692 28.5296C10.6731 28.6515 10.5522 28.7516 10.4144 28.8231C10.269 28.8862 10.1122 28.9188 9.9537 28.9188C9.79519 28.9188 9.63838 28.8862 9.49298 28.8231L2.3787 25.716C2.22947 25.6454 2.09816 25.542 1.99463 25.4134C1.8911 25.2849 1.81803 25.1345 1.78092 24.9737C1.7438 24.8129 1.7436 24.6457 1.78033 24.4848C1.81706 24.3239 1.88976 24.1733 1.99298 24.0445L7.50012 17.1445" stroke="white" stroke-width="1.5" stroke-linecap="round" stroke-linejoin="round"/>
<path d="M17.1431 20.0792L19.0716 28.1149C19.11 28.2681 19.1817 28.411 19.2818 28.5332C19.3818 28.6555 19.5076 28.7541 19.6502 28.822C19.7916 28.8859 19.945 28.919 20.1002 28.919C20.2554 28.919 20.4088 28.8859 20.5502 28.822L27.6216 25.7149C27.7731 25.6452 27.9062 25.5411 28.0104 25.4109C28.1145 25.2807 28.1869 25.128 28.2216 24.9649C28.2623 24.8054 28.264 24.6384 28.2267 24.4781C28.1894 24.3177 28.1142 24.1687 28.0074 24.0435L22.2645 16.7363" stroke="white" stroke-width="1.5" stroke-linecap="round" stroke-linejoin="round"/>
</svg>
