<svg width="50" height="50" viewBox="0 0 50 50" fill="none" xmlns="http://www.w3.org/2000/svg">
<circle cx="25" cy="25" r="25" fill="#0C5ADB"/>
<path d="M34.556 34.0194C30.8621 33.1063 28.4084 30.7115 26.5082 27.6289C26.2763 27.2528 26.2103 26.8287 26.6419 26.5579C27.0928 26.2749 27.4521 26.4963 27.7076 26.9121C28.8127 28.7117 30.1887 30.2446 31.9452 31.4504C36.8593 34.8241 43.3187 31.6659 44.2267 25.99C44.877 21.9249 41.9479 17.7719 37.9027 17.0018C34.6549 16.3835 32.1315 17.6844 29.9979 19.9859C28.2028 21.9224 26.7191 24.1048 25.1484 26.2179C23.5994 28.3019 21.9646 30.2974 19.9721 31.9977C14.7161 36.4828 6.51592 33.6993 5.03266 27.0033C3.71983 21.0767 7.4942 16.482 12.6645 15.6134C15.2583 15.1776 17.5818 15.9859 19.6636 17.5626C21.4464 18.9128 22.8791 20.5781 24.15 22.398C24.4244 22.7909 24.521 23.1988 24.0825 23.5206C23.62 23.8601 23.2895 23.5716 23.0196 23.1964C21.6999 21.362 20.2089 19.713 18.3701 18.3563C14.1685 15.2564 8.9202 17.3586 6.94919 21.3304C4.55991 26.145 7.62338 31.9356 12.9412 32.7412C15.4875 33.1269 17.538 32.2364 19.4057 30.6491C21.4169 28.9399 22.9606 26.8319 24.5102 24.7246C26.1417 22.5061 27.7163 20.2384 29.6995 18.3047C31.1116 16.9277 32.7751 15.916 34.725 15.6403C39.6302 14.9468 43.7207 17.4757 45.1749 21.9248C46.5907 26.2565 44.9657 30.4995 41.0462 32.8913C39.0694 34.0976 36.8856 34.394 34.556 34.0194Z" fill="white"/>
<path d="M29.5506 24.2267C29.5506 24.0986 29.5331 24.0045 29.4979 23.9442C29.4628 23.8814 29.3924 23.85 29.287 23.85H29.2116V23.7747H29.5506C29.6436 23.7747 29.7126 23.7872 29.7578 23.8124C29.8055 23.835 29.8394 23.8777 29.8595 23.9404C29.8796 24.0032 29.8896 24.0986 29.8896 24.2267V26.1101H31.2268V26.2607H29.5506V24.2267ZM32.137 24.2644C32.0792 24.2644 32.029 24.2405 31.9863 24.1928C31.9461 24.1451 31.926 24.0886 31.926 24.0233C31.926 23.9706 31.9411 23.9291 31.9712 23.899C32.0039 23.8689 32.0465 23.8538 32.0993 23.8538C32.157 23.8538 32.206 23.8777 32.2462 23.9254C32.2889 23.9731 32.3102 24.0296 32.3102 24.0949C32.3102 24.1476 32.2939 24.189 32.2613 24.2192C32.2311 24.2493 32.1897 24.2644 32.137 24.2644ZM31.9938 24.9424C31.9938 24.8143 31.9762 24.7201 31.9411 24.6599C31.9059 24.5971 31.8356 24.5657 31.7301 24.5657H31.6548V24.4904H31.9938C32.0867 24.4904 32.1558 24.5029 32.201 24.528C32.2487 24.5506 32.2826 24.5933 32.3027 24.6561C32.3228 24.7189 32.3328 24.8143 32.3328 24.9424V26.2607H31.9938V24.9424ZM33.0865 24.641V24.4904H33.3502V24.3774C33.3502 23.9505 33.5699 23.737 34.0094 23.737C34.1676 23.737 34.2743 23.7559 34.3295 23.7935C34.3722 23.8262 34.4162 23.8827 34.4614 23.963L34.3484 24.0572C34.273 23.9442 34.1538 23.8877 33.9905 23.8877C33.7896 23.8877 33.6892 24.0509 33.6892 24.3774V24.4904H34.2165V24.641H33.6892V26.2607H33.3502V24.641H33.0865ZM35.6072 26.2984C35.4364 26.2984 35.2921 26.2582 35.174 26.1779C35.056 26.095 34.9669 25.9845 34.9066 25.8464C34.8463 25.7058 34.8162 25.5488 34.8162 25.3756C34.8162 25.2048 34.8463 25.0491 34.9066 24.9085C34.9669 24.7679 35.0535 24.6574 35.1665 24.577C35.282 24.4941 35.4164 24.4527 35.5695 24.4527C35.8232 24.4527 36.0115 24.5243 36.1346 24.6674C36.2601 24.808 36.3229 25.0127 36.3229 25.2814L36.3154 25.4321H35.174C35.174 25.643 35.2192 25.815 35.3096 25.9481C35.4 26.0812 35.5243 26.1477 35.6825 26.1477C35.8006 26.1477 35.8998 26.1226 35.9801 26.0724C36.063 26.0222 36.1396 25.9468 36.2099 25.8464L36.2852 25.9029C36.2024 26.041 36.1057 26.1415 35.9952 26.2042C35.8847 26.267 35.7554 26.2984 35.6072 26.2984ZM35.965 25.2814C35.965 25.0604 35.9324 24.8922 35.8671 24.7766C35.8018 24.6611 35.7026 24.6034 35.5695 24.6034C35.4942 24.6034 35.4264 24.6335 35.3661 24.6938C35.3059 24.7515 35.2582 24.8319 35.223 24.9348C35.1904 25.0378 35.174 25.1533 35.174 25.2814H35.965ZM37.695 26.2984C37.5544 26.2984 37.4439 26.2582 37.3636 26.1779C37.2832 26.0975 37.243 25.9745 37.243 25.8087V24.641H36.9794V24.4904H37.243V24.1514L37.4314 23.9254H37.582V24.4904H38.034V24.641H37.582V25.8087C37.582 26.0347 37.6699 26.1477 37.8457 26.1477C37.906 26.1477 37.9562 26.1415 37.9964 26.1289C38.0391 26.1164 38.083 26.0975 38.1282 26.0724L38.1659 26.1477C38.1081 26.1904 38.0441 26.2268 37.9738 26.257C37.9035 26.2846 37.8106 26.2984 37.695 26.2984ZM39.5479 26.2984C39.3771 26.2984 39.2327 26.2582 39.1147 26.1779C38.9967 26.095 38.9075 25.9845 38.8473 25.8464C38.787 25.7058 38.7569 25.5488 38.7569 25.3756C38.7569 25.2048 38.787 25.0491 38.8473 24.9085C38.9075 24.7679 38.9942 24.6574 39.1072 24.577C39.2227 24.4941 39.357 24.4527 39.5102 24.4527C39.7638 24.4527 39.9522 24.5243 40.0752 24.6674C40.2008 24.808 40.2635 25.0127 40.2635 25.2814L40.256 25.4321H39.1147C39.1147 25.643 39.1599 25.815 39.2503 25.9481C39.3407 26.0812 39.465 26.1477 39.6232 26.1477C39.7412 26.1477 39.8404 26.1226 39.9208 26.0724C40.0036 26.0222 40.0802 25.9468 40.1505 25.8464L40.2259 25.9029C40.143 26.041 40.0463 26.1415 39.9358 26.2042C39.8254 26.267 39.696 26.2984 39.5479 26.2984ZM39.9057 25.2814C39.9057 25.0604 39.8731 24.8922 39.8078 24.7766C39.7425 24.6611 39.6433 24.6034 39.5102 24.6034C39.4349 24.6034 39.3671 24.6335 39.3068 24.6938C39.2465 24.7515 39.1988 24.8319 39.1637 24.9348C39.131 25.0378 39.1147 25.1533 39.1147 25.2814H39.9057ZM42.4493 26.2984C42.2359 26.2984 42.0538 26.198 41.9031 25.9971L41.4511 25.3944V26.2607H41.1121V24.2267C41.1121 24.0986 41.0945 24.0045 41.0594 23.9442C41.0242 23.8814 40.9539 23.85 40.8485 23.85H40.7731V23.7747H41.1121C41.205 23.7747 41.2741 23.7872 41.3193 23.8124C41.367 23.835 41.4009 23.8777 41.421 23.9404C41.4411 24.0032 41.4511 24.0986 41.4511 24.2267V25.3379L41.922 24.7352C41.9873 24.6549 42.0563 24.5946 42.1291 24.5544C42.202 24.5117 42.2961 24.4904 42.4116 24.4904H42.5247V24.5845C42.4568 24.5845 42.3916 24.5984 42.3288 24.626C42.266 24.6536 42.212 24.6963 42.1668 24.754L41.7525 25.2814L42.2233 25.8841C42.2961 25.9795 42.3639 26.0511 42.4267 26.0988C42.492 26.1465 42.5623 26.1766 42.6377 26.1892V26.2607C42.5824 26.2859 42.5196 26.2984 42.4493 26.2984Z" fill="white"/>
<path d="M12.1986 26.3675C12.0178 26.3675 11.8772 26.3399 11.7767 26.2846C11.6763 26.2294 11.6047 26.144 11.562 26.0285C11.5218 25.9105 11.5017 25.7535 11.5017 25.5577V24.1075L10.5601 26.198H10.4847L9.50537 24.0698V26.198H9.3547V23.7119H9.71254L10.6166 25.6707L11.5017 23.7119H11.8408V25.5577C11.8408 25.7912 11.8696 25.972 11.9274 26.1001C11.9877 26.2281 12.0781 26.2922 12.1986 26.2922V26.3675ZM13.4773 24.2016C13.4195 24.2016 13.3693 24.1778 13.3266 24.1301C13.2864 24.0823 13.2663 24.0258 13.2663 23.9606C13.2663 23.9078 13.2814 23.8664 13.3115 23.8363C13.3442 23.8061 13.3869 23.7911 13.4396 23.7911C13.4974 23.7911 13.5463 23.8149 13.5865 23.8626C13.6292 23.9103 13.6506 23.9668 13.6506 24.0321C13.6506 24.0849 13.6342 24.1263 13.6016 24.1564C13.5715 24.1866 13.53 24.2016 13.4773 24.2016ZM13.3341 24.8796C13.3341 24.7516 13.3166 24.6574 13.2814 24.5971C13.2463 24.5344 13.1759 24.503 13.0705 24.503H12.9951V24.4276H13.3341C13.4271 24.4276 13.4961 24.4402 13.5413 24.4653C13.589 24.4879 13.6229 24.5306 13.643 24.5934C13.6631 24.6561 13.6732 24.7516 13.6732 24.8796V26.198H13.3341V24.8796ZM15.4815 26.2357C15.3409 26.2357 15.2304 26.1955 15.1501 26.1151C15.0697 26.0348 15.0295 25.9117 15.0295 25.746V24.5783H14.7659V24.4276H15.0295V24.0886L15.2179 23.8626H15.3685V24.4276H15.8205V24.5783H15.3685V25.746C15.3685 25.972 15.4564 26.085 15.6322 26.085C15.6925 26.085 15.7427 26.0787 15.7829 26.0662C15.8256 26.0536 15.8695 26.0348 15.9147 26.0097L15.9524 26.085C15.8946 26.1277 15.8306 26.1641 15.7603 26.1942C15.69 26.2219 15.5971 26.2357 15.4815 26.2357ZM17.5076 26.2357C17.367 26.2357 17.2565 26.1955 17.1762 26.1151C17.0958 26.0348 17.0556 25.9117 17.0556 25.746V24.5783H16.792V24.4276H17.0556V24.0886L17.244 23.8626H17.3946V24.4276H17.8466V24.5783H17.3946V25.746C17.3946 25.972 17.4825 26.085 17.6583 26.085C17.7186 26.085 17.7688 26.0787 17.809 26.0662C17.8517 26.0536 17.8956 26.0348 17.9408 26.0097L17.9785 26.085C17.9207 26.1277 17.8567 26.1641 17.7864 26.1942C17.7161 26.2219 17.6231 26.2357 17.5076 26.2357ZM19.2098 24.2016C19.152 24.2016 19.1018 24.1778 19.0591 24.1301C19.0189 24.0823 18.9989 24.0258 18.9989 23.9606C18.9989 23.9078 19.0139 23.8664 19.0441 23.8363C19.0767 23.8061 19.1194 23.7911 19.1721 23.7911C19.2299 23.7911 19.2788 23.8149 19.319 23.8626C19.3617 23.9103 19.3831 23.9668 19.3831 24.0321C19.3831 24.0849 19.3667 24.1263 19.3341 24.1564C19.304 24.1866 19.2625 24.2016 19.2098 24.2016ZM19.0667 24.8796C19.0667 24.7516 19.0491 24.6574 19.0139 24.5971C18.9788 24.5344 18.9085 24.503 18.803 24.503H18.7276V24.4276H19.0667C19.1596 24.4276 19.2286 24.4402 19.2738 24.4653C19.3215 24.4879 19.3554 24.5306 19.3755 24.5934C19.3956 24.6561 19.4057 24.7516 19.4057 24.8796V26.198H19.0667V24.8796Z" fill="white"/>
<path d="M19.3314 33.8443C19.4445 33.8443 19.5451 33.8655 19.633 33.9079C19.721 33.9503 19.7948 34.01 19.8545 34.087C19.9158 34.1624 19.9614 34.2504 19.9912 34.3509C20.0226 34.4499 20.0383 34.5559 20.0383 34.669C20.0383 34.8214 20.0109 34.9604 19.9559 35.0861C19.9009 35.2102 19.8208 35.3092 19.7155 35.383C19.6118 35.4569 19.4838 35.4938 19.3314 35.4938H18.7682C18.7274 35.4938 18.6928 35.4804 18.6645 35.4537C18.6378 35.4254 18.6245 35.3909 18.6245 35.35V33.988C18.6245 33.9472 18.6378 33.9134 18.6645 33.8867C18.6928 33.8584 18.7274 33.8443 18.7682 33.8443H19.3314ZM19.3079 35.2228C19.4068 35.2228 19.4877 35.1976 19.5506 35.1474C19.6134 35.0955 19.659 35.028 19.6872 34.9447C19.7171 34.8599 19.732 34.768 19.732 34.669C19.732 34.5952 19.7234 34.5253 19.7061 34.4593C19.6904 34.3918 19.6652 34.3328 19.6307 34.2826C19.5961 34.2307 19.5521 34.1899 19.4987 34.16C19.4453 34.1302 19.3817 34.1153 19.3079 34.1153H18.8955L18.919 34.0941V35.2487L18.9049 35.2228H19.3079ZM20.6742 35.35C20.6742 35.3909 20.6593 35.4254 20.6294 35.4537C20.5996 35.4804 20.565 35.4938 20.5258 35.4938C20.4818 35.4938 20.4464 35.4804 20.4197 35.4537C20.393 35.4254 20.3797 35.3909 20.3797 35.35V33.988C20.3797 33.9472 20.3938 33.9134 20.4221 33.8867C20.4504 33.8584 20.4865 33.8443 20.5305 33.8443C20.5682 33.8443 20.6012 33.8584 20.6294 33.8867C20.6593 33.9134 20.6742 33.9472 20.6742 33.988V35.35ZM21.7049 34.2142L21.1959 35.4113C21.1849 35.4411 21.1676 35.4647 21.1441 35.482C21.1221 35.4977 21.0977 35.5056 21.071 35.5056C21.0286 35.5056 20.9972 35.4938 20.9768 35.4702C20.9563 35.4466 20.9461 35.4176 20.9461 35.383C20.9461 35.3689 20.9485 35.354 20.9532 35.3383L21.5399 33.9291C21.5525 33.8977 21.5714 33.8733 21.5965 33.8561C21.6232 33.8388 21.6515 33.8317 21.6813 33.8348C21.7096 33.8348 21.7355 33.8435 21.7591 33.8608C21.7842 33.8765 21.8023 33.8993 21.8133 33.9291L22.393 35.31C22.4008 35.3304 22.4047 35.3492 22.4047 35.3665C22.4047 35.4089 22.3906 35.4427 22.3623 35.4679C22.3356 35.493 22.3058 35.5056 22.2728 35.5056C22.2445 35.5056 22.2186 35.4969 22.195 35.4796C22.173 35.4624 22.1558 35.4388 22.1432 35.4089L21.6366 34.2284L21.7049 34.2142ZM21.269 35.1238L21.3986 34.8528H22.0348L22.0796 35.1238H21.269ZM23.4411 35.5173C23.3217 35.5173 23.2102 35.4953 23.1065 35.4514C23.0028 35.4074 22.9117 35.3469 22.8331 35.2699C22.7546 35.1914 22.6925 35.101 22.647 34.9989C22.603 34.8968 22.581 34.7868 22.581 34.669C22.581 34.5512 22.603 34.4412 22.647 34.3391C22.6925 34.237 22.7546 34.1475 22.8331 34.0705C22.9117 33.9919 23.0028 33.9307 23.1065 33.8867C23.2102 33.8427 23.3217 33.8207 23.4411 33.8207C23.5149 33.8207 23.5864 33.8286 23.6555 33.8443C23.7246 33.86 23.7883 33.8835 23.8464 33.915C23.87 33.9275 23.8872 33.9448 23.8982 33.9668C23.9108 33.9872 23.9171 34.0084 23.9171 34.0304C23.9171 34.0681 23.9045 34.1019 23.8794 34.1318C23.8542 34.1616 23.822 34.1765 23.7828 34.1765C23.7702 34.1765 23.7568 34.175 23.7427 34.1718C23.7301 34.1687 23.7176 34.164 23.705 34.1577C23.6657 34.1404 23.6241 34.127 23.5801 34.1176C23.5361 34.1082 23.4898 34.1035 23.4411 34.1035C23.339 34.1035 23.2455 34.1294 23.1607 34.1812C23.0774 34.2315 23.0106 34.2999 22.9604 34.3863C22.9117 34.4711 22.8873 34.5653 22.8873 34.669C22.8873 34.7711 22.9117 34.8654 22.9604 34.9518C23.0106 35.0382 23.0774 35.1073 23.1607 35.1592C23.2455 35.2094 23.339 35.2346 23.4411 35.2346C23.4882 35.2346 23.5401 35.2299 23.5966 35.2204C23.6532 35.211 23.6995 35.1984 23.7356 35.1827L23.7144 35.2534V34.8505L23.7545 34.8858H23.4929C23.4521 34.8858 23.4175 34.8725 23.3892 34.8458C23.3625 34.8191 23.3492 34.7853 23.3492 34.7444C23.3492 34.7036 23.3625 34.6698 23.3892 34.6431C23.4175 34.6164 23.4521 34.603 23.4929 34.603H23.8794C23.9202 34.603 23.954 34.6172 23.9807 34.6455C24.0074 34.6722 24.0208 34.7059 24.0208 34.7468V35.2463C24.0208 35.2778 24.0129 35.3037 23.9972 35.3241C23.9831 35.3445 23.9666 35.361 23.9477 35.3736C23.8754 35.4176 23.7961 35.4529 23.7097 35.4796C23.6249 35.5048 23.5353 35.5173 23.4411 35.5173ZM25.6262 33.8443C25.6639 33.8443 25.6945 33.8568 25.7181 33.882C25.7416 33.9071 25.7534 33.9385 25.7534 33.9762V35.35C25.7534 35.3909 25.7393 35.4254 25.711 35.4537C25.6843 35.4804 25.6505 35.4938 25.6097 35.4938C25.5893 35.4938 25.568 35.4906 25.5461 35.4843C25.5256 35.4765 25.5099 35.4663 25.4989 35.4537L24.5728 34.2779L24.6341 34.2402V35.3618C24.6341 35.3995 24.6215 35.4309 24.5964 35.4561C24.5728 35.4812 24.5414 35.4938 24.5022 35.4938C24.4645 35.4938 24.4338 35.4812 24.4103 35.4561C24.3867 35.4309 24.3749 35.3995 24.3749 35.3618V33.988C24.3749 33.9472 24.3883 33.9134 24.415 33.8867C24.4432 33.8584 24.4778 33.8443 24.5187 33.8443C24.5406 33.8443 24.5634 33.849 24.587 33.8584C24.6106 33.8663 24.6278 33.8788 24.6388 33.8961L25.5366 35.0413L25.4966 35.0696V33.9762C25.4966 33.9385 25.5084 33.9071 25.5319 33.882C25.5555 33.8568 25.5869 33.8443 25.6262 33.8443ZM27.6959 34.669C27.6959 34.7868 27.6763 34.8968 27.637 34.9989C27.5978 35.101 27.542 35.1914 27.4697 35.2699C27.399 35.3469 27.3142 35.4074 27.2152 35.4514C27.1178 35.4953 27.011 35.5173 26.8948 35.5173C26.7785 35.5173 26.6717 35.4953 26.5743 35.4514C26.4769 35.4074 26.3921 35.3469 26.3198 35.2699C26.2491 35.1914 26.1941 35.101 26.1548 34.9989C26.1156 34.8968 26.0959 34.7868 26.0959 34.669C26.0959 34.5512 26.1156 34.4412 26.1548 34.3391C26.1941 34.237 26.2491 34.1475 26.3198 34.0705C26.3921 33.9919 26.4769 33.9307 26.5743 33.8867C26.6717 33.8427 26.7785 33.8207 26.8948 33.8207C27.011 33.8207 27.1178 33.8427 27.2152 33.8867C27.3142 33.9307 27.399 33.9919 27.4697 34.0705C27.542 34.1475 27.5978 34.237 27.637 34.3391C27.6763 34.4412 27.6959 34.5512 27.6959 34.669ZM27.3896 34.669C27.3896 34.5638 27.3684 34.4687 27.326 34.3839C27.2836 34.2975 27.2254 34.2292 27.1516 34.1789C27.0778 34.1286 26.9922 34.1035 26.8948 34.1035C26.7974 34.1035 26.7117 34.1286 26.6379 34.1789C26.5641 34.2292 26.5059 34.2967 26.4635 34.3815C26.4227 34.4664 26.4023 34.5622 26.4023 34.669C26.4023 34.7743 26.4227 34.8701 26.4635 34.9565C26.5059 35.0413 26.5641 35.1089 26.6379 35.1592C26.7117 35.2094 26.7974 35.2346 26.8948 35.2346C26.9922 35.2346 27.0778 35.2094 27.1516 35.1592C27.2254 35.1089 27.2836 35.0413 27.326 34.9565C27.3684 34.8701 27.3896 34.7743 27.3896 34.669ZM28.5496 35.4938C28.5056 35.4938 28.4695 35.4804 28.4412 35.4537C28.4129 35.4254 28.3988 35.3909 28.3988 35.35V33.9833H28.7051V35.35C28.7051 35.3909 28.6902 35.4254 28.6603 35.4537C28.6321 35.4804 28.5951 35.4938 28.5496 35.4938ZM28.0288 34.1153C27.988 34.1153 27.9534 34.1027 27.9251 34.0776C27.8984 34.0524 27.8851 34.0194 27.8851 33.9786C27.8851 33.9377 27.8984 33.9055 27.9251 33.882C27.9534 33.8568 27.988 33.8443 28.0288 33.8443H29.0751C29.1159 33.8443 29.1497 33.8568 29.1764 33.882C29.2047 33.9071 29.2188 33.9401 29.2188 33.9809C29.2188 34.0218 29.2047 34.0548 29.1764 34.0799C29.1497 34.1035 29.1159 34.1153 29.0751 34.1153H28.0288ZM29.6806 33.8443H30.47C30.5109 33.8443 30.5446 33.8576 30.5713 33.8843C30.5996 33.9095 30.6138 33.9425 30.6138 33.9833C30.6138 34.0226 30.5996 34.0548 30.5713 34.0799C30.5446 34.1035 30.5109 34.1153 30.47 34.1153H29.8102L29.8314 34.0752V34.5347L29.8126 34.5159H30.364C30.4048 34.5159 30.4386 34.5292 30.4653 34.5559C30.4936 34.5811 30.5077 34.614 30.5077 34.6549C30.5077 34.6942 30.4936 34.7264 30.4653 34.7515C30.4386 34.7751 30.4048 34.7868 30.364 34.7868H29.8196L29.8314 34.768V35.244L29.8126 35.2228H30.47C30.5109 35.2228 30.5446 35.2369 30.5713 35.2652C30.5996 35.2919 30.6138 35.3233 30.6138 35.3595C30.6138 35.3987 30.5996 35.4309 30.5713 35.4561C30.5446 35.4812 30.5109 35.4938 30.47 35.4938H29.6806C29.6398 35.4938 29.6052 35.4804 29.5769 35.4537C29.5502 35.4254 29.5369 35.3909 29.5369 35.35V33.988C29.5369 33.9472 29.5502 33.9134 29.5769 33.8867C29.6052 33.8584 29.6398 33.8443 29.6806 33.8443ZM32.0919 35.4938C32.0479 35.4938 32.0125 35.4757 31.9858 35.4396L31.4415 34.7232L31.6559 34.5041L32.2191 35.2487C32.2411 35.2786 32.2521 35.3108 32.2521 35.3453C32.2521 35.3893 32.2356 35.4254 32.2026 35.4537C32.1696 35.4804 32.1327 35.4938 32.0919 35.4938ZM32.1201 33.8325C32.1578 33.8325 32.1885 33.8482 32.212 33.8796C32.2372 33.9095 32.2497 33.9401 32.2497 33.9715C32.2497 34.0045 32.2356 34.0351 32.2073 34.0634L31.22 35.0084L31.2082 34.6714L32.0047 33.8867C32.0408 33.8506 32.0793 33.8325 32.1201 33.8325ZM31.1022 35.4938C31.0582 35.4938 31.0228 35.4804 30.9961 35.4537C30.9694 35.4254 30.9561 35.3909 30.9561 35.35V33.988C30.9561 33.9472 30.9702 33.9134 30.9985 33.8867C31.0268 33.8584 31.0629 33.8443 31.1069 33.8443C31.1509 33.8443 31.1854 33.8584 31.2106 33.8867C31.2373 33.9134 31.2506 33.9472 31.2506 33.988V35.35C31.2506 35.3909 31.2373 35.4254 31.2106 35.4537C31.1839 35.4804 31.1477 35.4938 31.1022 35.4938Z" fill="white"/>
</svg>
