<svg width="1304" height="700" viewBox="0 0 1304 700" fill="none" xmlns="http://www.w3.org/2000/svg">
<path d="M949.164 590.749C831.484 561.659 753.317 485.367 692.78 387.162C685.393 375.181 683.29 361.669 697.04 353.041C711.405 344.026 722.85 351.079 730.99 364.327C766.196 421.658 810.034 470.493 865.991 508.906C1022.54 616.385 1228.33 515.772 1257.25 334.95C1277.97 205.446 1184.65 73.1387 1055.78 48.6048C952.316 28.9068 871.927 70.3509 803.956 143.674C746.765 205.364 699.498 274.89 649.458 342.209C600.112 408.602 548.03 472.173 484.553 526.342C317.112 669.227 55.8706 580.55 8.61719 367.231C-33.2066 178.423 87.0362 32.0462 251.752 4.37396C334.383 -9.50819 408.405 16.2402 474.727 66.4707C531.524 109.487 577.166 162.537 617.652 220.516C626.396 233.035 629.471 246.027 615.502 256.281C600.769 267.096 590.239 257.904 581.641 245.952C539.599 187.512 492.099 134.977 433.518 91.7566C299.664 -6.99945 132.465 59.9738 69.6736 186.505C-6.44368 339.887 91.1516 524.362 260.567 550.028C341.684 562.317 407.009 533.946 466.512 483.377C530.582 428.927 579.762 361.771 629.127 294.638C681.104 223.961 731.268 151.718 794.448 90.1133C839.434 46.2463 892.43 14.0141 954.549 5.23129C1110.82 -16.8623 1241.13 63.7024 1287.46 205.441C1332.56 343.44 1280.79 478.613 1155.93 554.809C1092.95 593.24 1023.38 602.683 949.164 590.749Z" fill="#030164"/>
<path d="M773.44 340V336.04C776.24 336.04 778.24 335.88 779.44 335.56C780.72 335.24 781.48 334.6 781.72 333.64C782.04 332.68 782.2 331.24 782.2 329.32V271.72C782.2 269.64 782.04 268.12 781.72 267.16C781.4 266.2 780.6 265.56 779.32 265.24C778.12 264.92 776.16 264.76 773.44 264.76V260.8H809.32V264.76C806.68 264.76 804.72 264.92 803.44 265.24C802.16 265.56 801.32 266.2 800.92 267.16C800.6 268.12 800.44 269.64 800.44 271.72V327.88C800.44 330.2 800.68 331.92 801.16 333.04C801.64 334.08 802.6 334.76 804.04 335.08C805.48 335.32 807.64 335.44 810.52 335.44C814.84 335.44 818.44 334.96 821.32 334C824.2 332.96 826.56 331.24 828.4 328.84C830.24 326.44 831.64 323.08 832.6 318.76H836.8L835.36 340H773.44ZM856.33 340V336.04C858.65 336.04 860.33 335.88 861.37 335.56C862.49 335.24 863.21 334.68 863.53 333.88C863.85 333 864.01 331.72 864.01 330.04V294.52C864.01 292.68 863.77 291.48 863.29 290.92C862.89 290.28 862.01 289.96 860.65 289.96H856.69V286L875.77 283H881.05V330.04C881.05 331.72 881.21 333 881.53 333.88C881.85 334.68 882.49 335.24 883.45 335.56C884.49 335.88 886.01 336.04 888.01 336.04V340H856.33ZM872.05 276.28C869.41 276.28 867.09 275.36 865.09 273.52C863.17 271.68 862.21 269.44 862.21 266.8C862.21 264.08 863.17 261.8 865.09 259.96C867.09 258.12 869.41 257.2 872.05 257.2C873.89 257.2 875.53 257.64 876.97 258.52C878.49 259.4 879.69 260.56 880.57 262C881.45 263.44 881.89 265.04 881.89 266.8C881.89 269.44 880.89 271.68 878.89 273.52C876.97 275.36 874.69 276.28 872.05 276.28ZM907.507 340V336.04C909.827 336.04 911.507 335.92 912.547 335.68C913.667 335.36 914.387 334.76 914.707 333.88C915.027 333 915.187 331.72 915.187 330.04V287.92H907.507V283.6H915.187V277.24C915.187 272.92 916.107 269.12 917.947 265.84C919.867 262.56 922.547 260.04 925.987 258.28C929.507 256.44 933.587 255.52 938.227 255.52C943.267 255.52 947.347 256.6 950.467 258.76C953.587 260.92 955.147 263.88 955.147 267.64C955.147 269.88 954.507 271.72 953.227 273.16C952.027 274.6 950.187 275.32 947.707 275.32C945.307 275.32 943.427 274.68 942.067 273.4C940.787 272.12 940.147 270.44 940.147 268.36C940.147 267.08 940.347 266.12 940.747 265.48C941.227 264.76 941.667 264.16 942.067 263.68C942.467 263.12 942.667 262.48 942.667 261.76C942.667 260.88 942.307 260.2 941.587 259.72C940.947 259.16 940.067 258.88 938.947 258.88C937.267 258.88 935.907 259.44 934.867 260.56C933.907 261.68 933.227 263.2 932.827 265.12C932.427 266.96 932.227 269.08 932.227 271.48V283.6H943.867V287.92H932.227V330.04C932.227 331.8 932.427 333.12 932.827 334C933.307 334.8 934.267 335.36 935.707 335.68C937.227 335.92 939.427 336.04 942.307 336.04V340H907.507ZM989.217 341.32C980.417 341.32 973.697 338.88 969.057 334C964.497 329.04 962.217 321.68 962.217 311.92C962.217 305.28 963.257 299.76 965.337 295.36C967.497 290.96 970.577 287.68 974.577 285.52C978.657 283.36 983.657 282.28 989.577 282.28C994.217 282.28 998.217 282.96 1001.58 284.32C1004.94 285.6 1007.66 287.52 1009.74 290.08C1011.9 292.56 1013.46 295.56 1014.42 299.08C1015.46 302.6 1015.98 306.64 1015.98 311.2V312.28H972.417V307.96H998.097C998.097 303.08 997.857 299.08 997.377 295.96C996.977 292.84 996.137 290.52 994.857 289C993.657 287.4 991.857 286.6 989.457 286.6C987.457 286.6 985.737 287.24 984.297 288.52C982.937 289.8 981.897 292.04 981.177 295.24C980.457 298.44 980.097 302.88 980.097 308.56C980.097 312.96 980.337 316.76 980.817 319.96C981.297 323.08 982.057 325.68 983.097 327.76C984.217 329.84 985.697 331.4 987.537 332.44C989.457 333.4 991.777 333.88 994.497 333.88C997.297 333.88 999.697 333.44 1001.7 332.56C1003.78 331.6 1005.54 330.28 1006.98 328.6C1008.5 326.92 1009.74 324.96 1010.7 322.72L1014.78 324.88C1013.74 327.36 1012.3 329.88 1010.46 332.44C1008.62 335 1006.02 337.12 1002.66 338.8C999.377 340.48 994.897 341.32 989.217 341.32ZM1057.68 341.44C1054.4 341.44 1051.56 340.88 1049.16 339.76C1046.76 338.56 1044.92 336.68 1043.64 334.12C1042.44 331.48 1041.84 328.04 1041.84 323.8V287.92H1034.64V283.96C1037.84 283.32 1040.8 282 1043.52 280C1046.24 277.92 1048.56 275.36 1050.48 272.32C1052.48 269.2 1053.96 265.88 1054.92 262.36H1058.88V283.6H1070.64V287.92H1058.88V323.08C1058.88 326.76 1059.36 329.56 1060.32 331.48C1061.36 333.32 1063.16 334.24 1065.72 334.24C1067.16 334.24 1068.48 333.96 1069.68 333.4C1070.96 332.76 1071.84 332.28 1072.32 331.96L1074.36 335.32C1073.32 336.04 1072.08 336.88 1070.64 337.84C1069.2 338.8 1067.44 339.64 1065.36 340.36C1063.28 341.08 1060.72 341.44 1057.68 341.44ZM1118.51 341.32C1109.71 341.32 1102.99 338.88 1098.35 334C1093.79 329.04 1091.51 321.68 1091.51 311.92C1091.51 305.28 1092.55 299.76 1094.63 295.36C1096.79 290.96 1099.87 287.68 1103.87 285.52C1107.95 283.36 1112.95 282.28 1118.87 282.28C1123.51 282.28 1127.51 282.96 1130.87 284.32C1134.23 285.6 1136.95 287.52 1139.03 290.08C1141.19 292.56 1142.75 295.56 1143.71 299.08C1144.75 302.6 1145.27 306.64 1145.27 311.2V312.28H1101.71V307.96H1127.39C1127.39 303.08 1127.15 299.08 1126.67 295.96C1126.27 292.84 1125.43 290.52 1124.15 289C1122.95 287.4 1121.15 286.6 1118.75 286.6C1116.75 286.6 1115.03 287.24 1113.59 288.52C1112.23 289.8 1111.19 292.04 1110.47 295.24C1109.75 298.44 1109.39 302.88 1109.39 308.56C1109.39 312.96 1109.63 316.76 1110.11 319.96C1110.59 323.08 1111.35 325.68 1112.39 327.76C1113.51 329.84 1114.99 331.4 1116.83 332.44C1118.75 333.4 1121.07 333.88 1123.79 333.88C1126.59 333.88 1128.99 333.44 1130.99 332.56C1133.07 331.6 1134.83 330.28 1136.27 328.6C1137.79 326.92 1139.03 324.96 1139.99 322.72L1144.07 324.88C1143.03 327.36 1141.59 329.88 1139.75 332.44C1137.91 335 1135.31 337.12 1131.95 338.8C1128.67 340.48 1124.19 341.32 1118.51 341.32ZM1165.49 340V336.04C1167.73 336.04 1169.41 335.88 1170.53 335.56C1171.65 335.24 1172.37 334.68 1172.69 333.88C1173.01 333 1173.17 331.72 1173.17 330.04V268.84C1173.17 267 1172.93 265.76 1172.45 265.12C1172.05 264.48 1171.13 264.16 1169.69 264.16H1165.73V260.2L1185.05 257.2H1190.21V330.04C1190.21 331.72 1190.33 333 1190.57 333.88C1190.81 334.68 1191.37 335.24 1192.25 335.56C1193.21 335.88 1194.69 336.04 1196.69 336.04V340H1165.49ZM1202.33 340V336.04H1204.01C1204.73 336.04 1205.25 335.96 1205.57 335.8C1205.97 335.56 1206.17 335.24 1206.17 334.84C1206.17 334.44 1205.89 333.84 1205.33 333.04C1204.85 332.16 1204.29 331.24 1203.65 330.28L1191.17 311.44L1201.97 300.04L1220.09 325.36C1221.85 327.84 1223.37 329.88 1224.65 331.48C1226.01 333 1227.21 334.16 1228.25 334.96C1229.37 335.68 1230.37 336.04 1231.25 336.04H1232.45V340H1202.33ZM1179.41 326.44V321.16L1204.25 295.84C1206.97 293.04 1208.33 290.96 1208.33 289.6C1208.41 288.16 1207.61 287.44 1205.93 287.44H1202.93V283.48L1227.77 283.6V287.56H1226.81C1223.29 287.56 1220.09 288.56 1217.21 290.56C1214.41 292.48 1211.33 295.12 1207.97 298.48L1179.41 326.44Z" fill="#030164"/>
<path d="M139.24 338V334.04H141.64C144.52 334.04 146.28 333.6 146.92 332.72C147.64 331.76 148 330.08 148 327.68V269.6C148 267.6 147.8 266.12 147.4 265.16C147.08 264.2 146.28 263.56 145 263.24C143.8 262.92 141.84 262.76 139.12 262.76V258.8H166.84L187.96 312.8H188.2L208.84 258.8H235.36V262.76C232.8 262.76 230.88 262.92 229.6 263.24C228.4 263.56 227.6 264.2 227.2 265.16C226.88 266.12 226.72 267.6 226.72 269.6V327.32C226.72 329.16 226.88 330.6 227.2 331.64C227.6 332.6 228.4 333.24 229.6 333.56C230.88 333.88 232.8 334.04 235.36 334.04V338H200.56V334.04C203.12 334.04 204.96 333.88 206.08 333.56C207.2 333.16 207.92 332.48 208.24 331.52C208.56 330.56 208.72 329.16 208.72 327.32V271.76H208.48L184.24 336.32H178.12L153.28 272.48H153.16V327.68C153.16 330.32 153.52 332.04 154.24 332.84C154.96 333.64 156.76 334.04 159.64 334.04H163.24V338H139.24ZM266.825 338V334.04C269.145 334.04 270.825 333.88 271.865 333.56C272.985 333.24 273.705 332.68 274.025 331.88C274.345 331 274.505 329.72 274.505 328.04V292.52C274.505 290.68 274.265 289.48 273.785 288.92C273.385 288.28 272.505 287.96 271.145 287.96H267.185V284L286.265 281H291.545V328.04C291.545 329.72 291.705 331 292.025 331.88C292.345 332.68 292.985 333.24 293.945 333.56C294.985 333.88 296.505 334.04 298.505 334.04V338H266.825ZM282.545 274.28C279.905 274.28 277.585 273.36 275.585 271.52C273.665 269.68 272.705 267.44 272.705 264.8C272.705 262.08 273.665 259.8 275.585 257.96C277.585 256.12 279.905 255.2 282.545 255.2C284.385 255.2 286.025 255.64 287.465 256.52C288.985 257.4 290.185 258.56 291.065 260C291.945 261.44 292.385 263.04 292.385 264.8C292.385 267.44 291.385 269.68 289.385 271.52C287.465 273.36 285.185 274.28 282.545 274.28ZM349.803 339.44C346.523 339.44 343.683 338.88 341.283 337.76C338.883 336.56 337.043 334.68 335.763 332.12C334.563 329.48 333.963 326.04 333.963 321.8V285.92H326.763V281.96C329.963 281.32 332.923 280 335.643 278C338.363 275.92 340.683 273.36 342.603 270.32C344.603 267.2 346.083 263.88 347.043 260.36H351.003V281.6H362.763V285.92H351.003V321.08C351.003 324.76 351.483 327.56 352.443 329.48C353.483 331.32 355.283 332.24 357.843 332.24C359.283 332.24 360.603 331.96 361.803 331.4C363.083 330.76 363.963 330.28 364.443 329.96L366.483 333.32C365.443 334.04 364.203 334.88 362.763 335.84C361.323 336.8 359.563 337.64 357.483 338.36C355.403 339.08 352.843 339.44 349.803 339.44ZM414.349 339.44C411.069 339.44 408.229 338.88 405.829 337.76C403.429 336.56 401.589 334.68 400.309 332.12C399.109 329.48 398.509 326.04 398.509 321.8V285.92H391.309V281.96C394.509 281.32 397.469 280 400.189 278C402.909 275.92 405.229 273.36 407.149 270.32C409.149 267.2 410.629 263.88 411.589 260.36H415.549V281.6H427.309V285.92H415.549V321.08C415.549 324.76 416.029 327.56 416.989 329.48C418.029 331.32 419.829 332.24 422.389 332.24C423.829 332.24 425.149 331.96 426.349 331.4C427.629 330.76 428.509 330.28 428.989 329.96L431.029 333.32C429.989 334.04 428.749 334.88 427.309 335.84C425.869 336.8 424.109 337.64 422.029 338.36C419.949 339.08 417.389 339.44 414.349 339.44ZM457.536 338V334.04C459.856 334.04 461.536 333.88 462.576 333.56C463.696 333.24 464.416 332.68 464.736 331.88C465.056 331 465.216 329.72 465.216 328.04V292.52C465.216 290.68 464.976 289.48 464.496 288.92C464.096 288.28 463.216 287.96 461.856 287.96H457.896V284L476.976 281H482.256V328.04C482.256 329.72 482.416 331 482.736 331.88C483.056 332.68 483.696 333.24 484.656 333.56C485.696 333.88 487.216 334.04 489.216 334.04V338H457.536ZM473.256 274.28C470.616 274.28 468.296 273.36 466.296 271.52C464.376 269.68 463.416 267.44 463.416 264.8C463.416 262.08 464.376 259.8 466.296 257.96C468.296 256.12 470.616 255.2 473.256 255.2C475.096 255.2 476.736 255.64 478.176 256.52C479.696 257.4 480.896 258.56 481.776 260C482.656 261.44 483.096 263.04 483.096 264.8C483.096 267.44 482.096 269.68 480.096 271.52C478.176 273.36 475.896 274.28 473.256 274.28Z" fill="#030164"/>
<path d="M367.75 621C372.07 621 375.91 621.81 379.27 623.43C382.63 625.05 385.45 627.33 387.73 630.27C390.07 633.15 391.81 636.51 392.95 640.35C394.15 644.13 394.75 648.18 394.75 652.5C394.75 658.32 393.7 663.63 391.6 668.43C389.5 673.17 386.44 676.95 382.42 679.77C378.46 682.59 373.57 684 367.75 684H346.24C344.68 684 343.36 683.49 342.28 682.47C341.26 681.39 340.75 680.07 340.75 678.51V626.49C340.75 624.93 341.26 623.64 342.28 622.62C343.36 621.54 344.68 621 346.24 621H367.75ZM366.85 673.65C370.63 673.65 373.72 672.69 376.12 670.77C378.52 668.79 380.26 666.21 381.34 663.03C382.48 659.79 383.05 656.28 383.05 652.5C383.05 649.68 382.72 647.01 382.06 644.49C381.46 641.91 380.5 639.66 379.18 637.74C377.86 635.76 376.18 634.2 374.14 633.06C372.1 631.92 369.67 631.35 366.85 631.35H351.1L352 630.54V674.64L351.46 673.65H366.85ZM419.036 678.51C419.036 680.07 418.466 681.39 417.326 682.47C416.186 683.49 414.866 684 413.366 684C411.686 684 410.336 683.49 409.316 682.47C408.296 681.39 407.786 680.07 407.786 678.51V626.49C407.786 624.93 408.326 623.64 409.406 622.62C410.486 621.54 411.866 621 413.546 621C414.986 621 416.246 621.54 417.326 622.62C418.466 623.64 419.036 624.93 419.036 626.49V678.51ZM458.401 635.13L438.961 680.85C438.541 681.99 437.881 682.89 436.981 683.55C436.141 684.15 435.211 684.45 434.191 684.45C432.571 684.45 431.371 684 430.591 683.1C429.811 682.2 429.421 681.09 429.421 679.77C429.421 679.23 429.511 678.66 429.691 678.06L452.101 624.24C452.581 623.04 453.301 622.11 454.261 621.45C455.281 620.79 456.361 620.52 457.501 620.64C458.581 620.64 459.571 620.97 460.471 621.63C461.431 622.23 462.121 623.1 462.541 624.24L484.681 676.98C484.981 677.76 485.131 678.48 485.131 679.14C485.131 680.76 484.591 682.05 483.511 683.01C482.491 683.97 481.351 684.45 480.091 684.45C479.011 684.45 478.021 684.12 477.121 683.46C476.281 682.8 475.621 681.9 475.141 680.76L455.791 635.67L458.401 635.13ZM441.751 669.87L446.701 659.52H471.001L472.711 669.87H441.751ZM524.712 684.9C520.152 684.9 515.892 684.06 511.932 682.38C507.972 680.7 504.492 678.39 501.492 675.45C498.492 672.45 496.122 669 494.382 665.1C492.702 661.2 491.862 657 491.862 652.5C491.862 648 492.702 643.8 494.382 639.9C496.122 636 498.492 632.58 501.492 629.64C504.492 626.64 507.972 624.3 511.932 622.62C515.892 620.94 520.152 620.1 524.712 620.1C527.532 620.1 530.262 620.4 532.902 621C535.542 621.6 537.972 622.5 540.192 623.7C541.092 624.18 541.752 624.84 542.172 625.68C542.652 626.46 542.892 627.27 542.892 628.11C542.892 629.55 542.412 630.84 541.452 631.98C540.492 633.12 539.262 633.69 537.762 633.69C537.282 633.69 536.772 633.63 536.232 633.51C535.752 633.39 535.272 633.21 534.792 632.97C533.292 632.31 531.702 631.8 530.022 631.44C528.342 631.08 526.572 630.9 524.712 630.9C520.812 630.9 517.242 631.89 514.002 633.87C510.822 635.79 508.272 638.4 506.352 641.7C504.492 644.94 503.562 648.54 503.562 652.5C503.562 656.4 504.492 660 506.352 663.3C508.272 666.6 510.822 669.24 514.002 671.22C517.242 673.14 520.812 674.1 524.712 674.1C526.512 674.1 528.492 673.92 530.652 673.56C532.812 673.2 534.582 672.72 535.962 672.12L535.152 674.82V659.43L536.682 660.78H526.692C525.132 660.78 523.812 660.27 522.732 659.25C521.712 658.23 521.202 656.94 521.202 655.38C521.202 653.82 521.712 652.53 522.732 651.51C523.812 650.49 525.132 649.98 526.692 649.98H541.452C543.012 649.98 544.302 650.52 545.322 651.6C546.342 652.62 546.852 653.91 546.852 655.47V674.55C546.852 675.75 546.552 676.74 545.952 677.52C545.412 678.3 544.782 678.93 544.062 679.41C541.302 681.09 538.272 682.44 534.972 683.46C531.732 684.42 528.312 684.9 524.712 684.9ZM608.168 621C609.608 621 610.778 621.48 611.678 622.44C612.578 623.4 613.028 624.6 613.028 626.04V678.51C613.028 680.07 612.488 681.39 611.408 682.47C610.388 683.49 609.098 684 607.538 684C606.758 684 605.948 683.88 605.108 683.64C604.328 683.34 603.728 682.95 603.308 682.47L567.938 637.56L570.278 636.12V678.96C570.278 680.4 569.798 681.6 568.838 682.56C567.938 683.52 566.738 684 565.238 684C563.798 684 562.628 683.52 561.728 682.56C560.828 681.6 560.378 680.4 560.378 678.96V626.49C560.378 624.93 560.888 623.64 561.908 622.62C562.988 621.54 564.308 621 565.868 621C566.708 621 567.578 621.18 568.478 621.54C569.378 621.84 570.038 622.32 570.458 622.98L604.748 666.72L603.218 667.8V626.04C603.218 624.6 603.668 623.4 604.568 622.44C605.468 621.48 606.668 621 608.168 621ZM687.22 652.5C687.22 657 686.47 661.2 684.97 665.1C683.47 669 681.34 672.45 678.58 675.45C675.88 678.39 672.64 680.7 668.86 682.38C665.14 684.06 661.06 684.9 656.62 684.9C652.18 684.9 648.1 684.06 644.38 682.38C640.66 680.7 637.42 678.39 634.66 675.45C631.96 672.45 629.86 669 628.36 665.1C626.86 661.2 626.11 657 626.11 652.5C626.11 648 626.86 643.8 628.36 639.9C629.86 636 631.96 632.58 634.66 629.64C637.42 626.64 640.66 624.3 644.38 622.62C648.1 620.94 652.18 620.1 656.62 620.1C661.06 620.1 665.14 620.94 668.86 622.62C672.64 624.3 675.88 626.64 678.58 629.64C681.34 632.58 683.47 636 684.97 639.9C686.47 643.8 687.22 648 687.22 652.5ZM675.52 652.5C675.52 648.48 674.71 644.85 673.09 641.61C671.47 638.31 669.25 635.7 666.43 633.78C663.61 631.86 660.34 630.9 656.62 630.9C652.9 630.9 649.63 631.86 646.81 633.78C643.99 635.7 641.77 638.28 640.15 641.52C638.59 644.76 637.81 648.42 637.81 652.5C637.81 656.52 638.59 660.18 640.15 663.48C641.77 666.72 643.99 669.3 646.81 671.22C649.63 673.14 652.9 674.1 656.62 674.1C660.34 674.1 663.61 673.14 666.43 671.22C669.25 669.3 671.47 666.72 673.09 663.48C674.71 660.18 675.52 656.52 675.52 652.5ZM720.501 684.9C716.301 684.9 712.521 684.39 709.161 683.37C705.801 682.29 702.591 680.43 699.531 677.79C698.751 677.13 698.151 676.38 697.731 675.54C697.311 674.7 697.101 673.86 697.101 673.02C697.101 671.64 697.581 670.44 698.541 669.42C699.561 668.34 700.821 667.8 702.321 667.8C703.461 667.8 704.481 668.16 705.381 668.88C707.661 670.74 709.911 672.15 712.131 673.11C714.411 674.07 717.201 674.55 720.501 674.55C722.721 674.55 724.761 674.22 726.621 673.56C728.481 672.84 729.981 671.91 731.121 670.77C732.261 669.57 732.831 668.22 732.831 666.72C732.831 664.92 732.291 663.39 731.211 662.13C730.131 660.87 728.481 659.82 726.261 658.98C724.041 658.08 721.221 657.39 717.801 656.91C714.561 656.43 711.711 655.71 709.251 654.75C706.791 653.73 704.721 652.47 703.041 650.97C701.421 649.41 700.191 647.61 699.351 645.57C698.511 643.47 698.091 641.13 698.091 638.55C698.091 634.65 699.081 631.32 701.061 628.56C703.101 625.8 705.831 623.7 709.251 622.26C712.671 620.82 716.451 620.1 720.591 620.1C724.491 620.1 728.091 620.7 731.391 621.9C734.751 623.04 737.481 624.51 739.581 626.31C741.321 627.69 742.191 629.28 742.191 631.08C742.191 632.4 741.681 633.6 740.661 634.68C739.641 635.76 738.441 636.3 737.061 636.3C736.161 636.3 735.351 636.03 734.631 635.49C733.671 634.65 732.381 633.87 730.761 633.15C729.141 632.37 727.431 631.74 725.631 631.26C723.831 630.72 722.151 630.45 720.591 630.45C718.011 630.45 715.821 630.78 714.021 631.44C712.281 632.1 710.961 633 710.061 634.14C709.161 635.28 708.711 636.6 708.711 638.1C708.711 639.9 709.221 641.4 710.241 642.6C711.321 643.74 712.851 644.67 714.831 645.39C716.811 646.05 719.181 646.65 721.941 647.19C725.541 647.85 728.691 648.63 731.391 649.53C734.151 650.43 736.431 651.6 738.231 653.04C740.031 654.42 741.381 656.19 742.281 658.35C743.181 660.45 743.631 663.03 743.631 666.09C743.631 669.99 742.551 673.35 740.391 676.17C738.231 678.99 735.381 681.15 731.841 682.65C728.361 684.15 724.581 684.9 720.501 684.9ZM777.982 684C776.302 684 774.922 683.49 773.842 682.47C772.762 681.39 772.222 680.07 772.222 678.51V626.31H783.922V678.51C783.922 680.07 783.352 681.39 782.212 682.47C781.132 683.49 779.722 684 777.982 684ZM758.092 631.35C756.532 631.35 755.212 630.87 754.132 629.91C753.112 628.95 752.602 627.69 752.602 626.13C752.602 624.57 753.112 623.34 754.132 622.44C755.212 621.48 756.532 621 758.092 621H798.052C799.612 621 800.902 621.48 801.922 622.44C803.002 623.4 803.542 624.66 803.542 626.22C803.542 627.78 803.002 629.04 801.922 630C800.902 630.9 799.612 631.35 798.052 631.35H758.092ZM826.94 678.51C826.94 680.07 826.37 681.39 825.23 682.47C824.09 683.49 822.77 684 821.27 684C819.59 684 818.24 683.49 817.22 682.47C816.2 681.39 815.69 680.07 815.69 678.51V626.49C815.69 624.93 816.23 623.64 817.31 622.62C818.39 621.54 819.77 621 821.45 621C822.89 621 824.15 621.54 825.23 622.62C826.37 623.64 826.94 624.93 826.94 626.49V678.51ZM887.275 624.06C888.835 624.84 889.735 626.07 889.975 627.75C890.275 629.43 889.855 630.96 888.715 632.34C887.935 633.42 886.915 634.02 885.655 634.14C884.455 634.26 883.225 634.02 881.965 633.42C880.525 632.76 878.995 632.25 877.375 631.89C875.815 631.53 874.165 631.35 872.425 631.35C869.185 631.35 866.275 631.86 863.695 632.88C861.175 633.9 859.015 635.37 857.215 637.29C855.415 639.15 854.035 641.37 853.075 643.95C852.175 646.53 851.725 649.38 851.725 652.5C851.725 656.16 852.235 659.34 853.255 662.04C854.335 664.74 855.805 666.99 857.665 668.79C859.525 670.59 861.715 671.94 864.235 672.84C866.755 673.68 869.485 674.1 872.425 674.1C874.045 674.1 875.665 673.95 877.285 673.65C878.905 673.35 880.465 672.81 881.965 672.03C883.225 671.43 884.455 671.22 885.655 671.4C886.915 671.58 887.965 672.21 888.805 673.29C890.005 674.79 890.425 676.35 890.065 677.97C889.765 679.53 888.865 680.67 887.365 681.39C885.805 682.17 884.185 682.83 882.505 683.37C880.885 683.85 879.235 684.21 877.555 684.45C875.875 684.75 874.165 684.9 872.425 684.9C868.105 684.9 863.995 684.21 860.095 682.83C856.255 681.45 852.805 679.41 849.745 676.71C846.745 674.01 844.375 670.65 842.635 666.63C840.895 662.55 840.025 657.84 840.025 652.5C840.025 647.88 840.805 643.62 842.365 639.72C843.985 635.82 846.235 632.46 849.115 629.64C852.055 626.76 855.505 624.54 859.465 622.98C863.425 621.36 867.745 620.55 872.425 620.55C875.065 620.55 877.645 620.85 880.165 621.45C882.685 622.05 885.055 622.92 887.275 624.06ZM922.551 684.9C918.351 684.9 914.571 684.39 911.211 683.37C907.851 682.29 904.641 680.43 901.581 677.79C900.801 677.13 900.201 676.38 899.781 675.54C899.361 674.7 899.151 673.86 899.151 673.02C899.151 671.64 899.631 670.44 900.591 669.42C901.611 668.34 902.871 667.8 904.371 667.8C905.511 667.8 906.531 668.16 907.431 668.88C909.711 670.74 911.961 672.15 914.181 673.11C916.461 674.07 919.251 674.55 922.551 674.55C924.771 674.55 926.811 674.22 928.671 673.56C930.531 672.84 932.031 671.91 933.171 670.77C934.311 669.57 934.881 668.22 934.881 666.72C934.881 664.92 934.341 663.39 933.261 662.13C932.181 660.87 930.531 659.82 928.311 658.98C926.091 658.08 923.271 657.39 919.851 656.91C916.611 656.43 913.761 655.71 911.301 654.75C908.841 653.73 906.771 652.47 905.091 650.97C903.471 649.41 902.241 647.61 901.401 645.57C900.561 643.47 900.141 641.13 900.141 638.55C900.141 634.65 901.131 631.32 903.111 628.56C905.151 625.8 907.881 623.7 911.301 622.26C914.721 620.82 918.501 620.1 922.641 620.1C926.541 620.1 930.141 620.7 933.441 621.9C936.801 623.04 939.531 624.51 941.631 626.31C943.371 627.69 944.241 629.28 944.241 631.08C944.241 632.4 943.731 633.6 942.711 634.68C941.691 635.76 940.491 636.3 939.111 636.3C938.211 636.3 937.401 636.03 936.681 635.49C935.721 634.65 934.431 633.87 932.811 633.15C931.191 632.37 929.481 631.74 927.681 631.26C925.881 630.72 924.201 630.45 922.641 630.45C920.061 630.45 917.871 630.78 916.071 631.44C914.331 632.1 913.011 633 912.111 634.14C911.211 635.28 910.761 636.6 910.761 638.1C910.761 639.9 911.271 641.4 912.291 642.6C913.371 643.74 914.901 644.67 916.881 645.39C918.861 646.05 921.231 646.65 923.991 647.19C927.591 647.85 930.741 648.63 933.441 649.53C936.201 650.43 938.481 651.6 940.281 653.04C942.081 654.42 943.431 656.19 944.331 658.35C945.231 660.45 945.681 663.03 945.681 666.09C945.681 669.99 944.601 673.35 942.441 676.17C940.281 678.99 937.431 681.15 933.891 682.65C930.411 684.15 926.631 684.9 922.551 684.9Z" fill="#030164"/>
</svg>
