<svg width="1304" height="700" viewBox="0 0 1304 700" fill="none" xmlns="http://www.w3.org/2000/svg">
<path d="M949.164 590.749C831.484 561.659 753.317 485.367 692.78 387.162C685.393 375.181 683.29 361.669 697.04 353.041C711.405 344.026 722.85 351.079 730.99 364.327C766.196 421.658 810.034 470.493 865.991 508.906C1022.54 616.385 1228.33 515.772 1257.25 334.95C1277.97 205.446 1184.65 73.1387 1055.78 48.6048C952.316 28.9068 871.927 70.3509 803.956 143.674C746.765 205.364 699.498 274.89 649.458 342.209C600.112 408.602 548.03 472.173 484.553 526.342C317.112 669.227 55.8706 580.55 8.61719 367.231C-33.2066 178.423 87.0362 32.0462 251.752 4.37396C334.383 -9.50819 408.405 16.2402 474.727 66.4707C531.524 109.487 577.166 162.537 617.652 220.516C626.396 233.035 629.471 246.027 615.502 256.281C600.769 267.096 590.239 257.904 581.641 245.952C539.599 187.512 492.099 134.977 433.518 91.7566C299.664 -6.99945 132.465 59.9738 69.6736 186.505C-6.44368 339.887 91.1516 524.362 260.567 550.028C341.684 562.317 407.009 533.946 466.512 483.377C530.582 428.927 579.762 361.771 629.127 294.638C681.104 223.961 731.268 151.718 794.448 90.1133C839.434 46.2463 892.43 14.0141 954.549 5.23129C1110.82 -16.8623 1241.13 63.7024 1287.46 205.441C1332.56 343.44 1280.79 478.613 1155.93 554.809C1092.95 593.24 1023.38 602.683 949.164 590.749Z" fill="white"/>
<path d="M773.44 340V336.04C776.24 336.04 778.24 335.88 779.44 335.56C780.72 335.24 781.48 334.6 781.72 333.64C782.04 332.68 782.2 331.24 782.2 329.32V271.72C782.2 269.64 782.04 268.12 781.72 267.16C781.4 266.2 780.6 265.56 779.32 265.24C778.12 264.92 776.16 264.76 773.44 264.76V260.8H809.32V264.76C806.68 264.76 804.72 264.92 803.44 265.24C802.16 265.56 801.32 266.2 800.92 267.16C800.6 268.12 800.44 269.64 800.44 271.72V327.88C800.44 330.2 800.68 331.92 801.16 333.04C801.64 334.08 802.6 334.76 804.04 335.08C805.48 335.32 807.64 335.44 810.52 335.44C814.84 335.44 818.44 334.96 821.32 334C824.2 332.96 826.56 331.24 828.4 328.84C830.24 326.44 831.64 323.08 832.6 318.76H836.8L835.36 340H773.44ZM856.33 340V336.04C858.65 336.04 860.33 335.88 861.37 335.56C862.49 335.24 863.21 334.68 863.53 333.88C863.85 333 864.01 331.72 864.01 330.04V294.52C864.01 292.68 863.77 291.48 863.29 290.92C862.89 290.28 862.01 289.96 860.65 289.96H856.69V286L875.77 283H881.05V330.04C881.05 331.72 881.21 333 881.53 333.88C881.85 334.68 882.49 335.24 883.45 335.56C884.49 335.88 886.01 336.04 888.01 336.04V340H856.33ZM872.05 276.28C869.41 276.28 867.09 275.36 865.09 273.52C863.17 271.68 862.21 269.44 862.21 266.8C862.21 264.08 863.17 261.8 865.09 259.96C867.09 258.12 869.41 257.2 872.05 257.2C873.89 257.2 875.53 257.64 876.97 258.52C878.49 259.4 879.69 260.56 880.57 262C881.45 263.44 881.89 265.04 881.89 266.8C881.89 269.44 880.89 271.68 878.89 273.52C876.97 275.36 874.69 276.28 872.05 276.28ZM907.507 340V336.04C909.827 336.04 911.507 335.92 912.547 335.68C913.667 335.36 914.387 334.76 914.707 333.88C915.027 333 915.187 331.72 915.187 330.04V287.92H907.507V283.6H915.187V277.24C915.187 272.92 916.107 269.12 917.947 265.84C919.867 262.56 922.547 260.04 925.987 258.28C929.507 256.44 933.587 255.52 938.227 255.52C943.267 255.52 947.347 256.6 950.467 258.76C953.587 260.92 955.147 263.88 955.147 267.64C955.147 269.88 954.507 271.72 953.227 273.16C952.027 274.6 950.187 275.32 947.707 275.32C945.307 275.32 943.427 274.68 942.067 273.4C940.787 272.12 940.147 270.44 940.147 268.36C940.147 267.08 940.347 266.12 940.747 265.48C941.227 264.76 941.667 264.16 942.067 263.68C942.467 263.12 942.667 262.48 942.667 261.76C942.667 260.88 942.307 260.2 941.587 259.72C940.947 259.16 940.067 258.88 938.947 258.88C937.267 258.88 935.907 259.44 934.867 260.56C933.907 261.68 933.227 263.2 932.827 265.12C932.427 266.96 932.227 269.08 932.227 271.48V283.6H943.867V287.92H932.227V330.04C932.227 331.8 932.427 333.12 932.827 334C933.307 334.8 934.267 335.36 935.707 335.68C937.227 335.92 939.427 336.04 942.307 336.04V340H907.507ZM989.217 341.32C980.417 341.32 973.697 338.88 969.057 334C964.497 329.04 962.217 321.68 962.217 311.92C962.217 305.28 963.257 299.76 965.337 295.36C967.497 290.96 970.577 287.68 974.577 285.52C978.657 283.36 983.657 282.28 989.577 282.28C994.217 282.28 998.217 282.96 1001.58 284.32C1004.94 285.6 1007.66 287.52 1009.74 290.08C1011.9 292.56 1013.46 295.56 1014.42 299.08C1015.46 302.6 1015.98 306.64 1015.98 311.2V312.28H972.417V307.96H998.097C998.097 303.08 997.857 299.08 997.377 295.96C996.977 292.84 996.137 290.52 994.857 289C993.657 287.4 991.857 286.6 989.457 286.6C987.457 286.6 985.737 287.24 984.297 288.52C982.937 289.8 981.897 292.04 981.177 295.24C980.457 298.44 980.097 302.88 980.097 308.56C980.097 312.96 980.337 316.76 980.817 319.96C981.297 323.08 982.057 325.68 983.097 327.76C984.217 329.84 985.697 331.4 987.537 332.44C989.457 333.4 991.777 333.88 994.497 333.88C997.297 333.88 999.697 333.44 1001.7 332.56C1003.78 331.6 1005.54 330.28 1006.98 328.6C1008.5 326.92 1009.74 324.96 1010.7 322.72L1014.78 324.88C1013.74 327.36 1012.3 329.88 1010.46 332.44C1008.62 335 1006.02 337.12 1002.66 338.8C999.377 340.48 994.897 341.32 989.217 341.32ZM1057.68 341.44C1054.4 341.44 1051.56 340.88 1049.16 339.76C1046.76 338.56 1044.92 336.68 1043.64 334.12C1042.44 331.48 1041.84 328.04 1041.84 323.8V287.92H1034.64V283.96C1037.84 283.32 1040.8 282 1043.52 280C1046.24 277.92 1048.56 275.36 1050.48 272.32C1052.48 269.2 1053.96 265.88 1054.92 262.36H1058.88V283.6H1070.64V287.92H1058.88V323.08C1058.88 326.76 1059.36 329.56 1060.32 331.48C1061.36 333.32 1063.16 334.24 1065.72 334.24C1067.16 334.24 1068.48 333.96 1069.68 333.4C1070.96 332.76 1071.84 332.28 1072.32 331.96L1074.36 335.32C1073.32 336.04 1072.08 336.88 1070.64 337.84C1069.2 338.8 1067.44 339.64 1065.36 340.36C1063.28 341.08 1060.72 341.44 1057.68 341.44ZM1118.51 341.32C1109.71 341.32 1102.99 338.88 1098.35 334C1093.79 329.04 1091.51 321.68 1091.51 311.92C1091.51 305.28 1092.55 299.76 1094.63 295.36C1096.79 290.96 1099.87 287.68 1103.87 285.52C1107.95 283.36 1112.95 282.28 1118.87 282.28C1123.51 282.28 1127.51 282.96 1130.87 284.32C1134.23 285.6 1136.95 287.52 1139.03 290.08C1141.19 292.56 1142.75 295.56 1143.71 299.08C1144.75 302.6 1145.27 306.64 1145.27 311.2V312.28H1101.71V307.96H1127.39C1127.39 303.08 1127.15 299.08 1126.67 295.96C1126.27 292.84 1125.43 290.52 1124.15 289C1122.95 287.4 1121.15 286.6 1118.75 286.6C1116.75 286.6 1115.03 287.24 1113.59 288.52C1112.23 289.8 1111.19 292.04 1110.47 295.24C1109.75 298.44 1109.39 302.88 1109.39 308.56C1109.39 312.96 1109.63 316.76 1110.11 319.96C1110.59 323.08 1111.35 325.68 1112.39 327.76C1113.51 329.84 1114.99 331.4 1116.83 332.44C1118.75 333.4 1121.07 333.88 1123.79 333.88C1126.59 333.88 1128.99 333.44 1130.99 332.56C1133.07 331.6 1134.83 330.28 1136.27 328.6C1137.79 326.92 1139.03 324.96 1139.99 322.72L1144.07 324.88C1143.03 327.36 1141.59 329.88 1139.75 332.44C1137.91 335 1135.31 337.12 1131.95 338.8C1128.67 340.48 1124.19 341.32 1118.51 341.32ZM1165.49 340V336.04C1167.73 336.04 1169.41 335.88 1170.53 335.56C1171.65 335.24 1172.37 334.68 1172.69 333.88C1173.01 333 1173.17 331.72 1173.17 330.04V268.84C1173.17 267 1172.93 265.76 1172.45 265.12C1172.05 264.48 1171.13 264.16 1169.69 264.16H1165.73V260.2L1185.05 257.2H1190.21V330.04C1190.21 331.72 1190.33 333 1190.57 333.88C1190.81 334.68 1191.37 335.24 1192.25 335.56C1193.21 335.88 1194.69 336.04 1196.69 336.04V340H1165.49ZM1202.33 340V336.04H1204.01C1204.73 336.04 1205.25 335.96 1205.57 335.8C1205.97 335.56 1206.17 335.24 1206.17 334.84C1206.17 334.44 1205.89 333.84 1205.33 333.04C1204.85 332.16 1204.29 331.24 1203.65 330.28L1191.17 311.44L1201.97 300.04L1220.09 325.36C1221.85 327.84 1223.37 329.88 1224.65 331.48C1226.01 333 1227.21 334.16 1228.25 334.96C1229.37 335.68 1230.37 336.04 1231.25 336.04H1232.45V340H1202.33ZM1179.41 326.44V321.16L1204.25 295.84C1206.97 293.04 1208.33 290.96 1208.33 289.6C1208.41 288.16 1207.61 287.44 1205.93 287.44H1202.93V283.48L1227.77 283.6V287.56H1226.81C1223.29 287.56 1220.09 288.56 1217.21 290.56C1214.41 292.48 1211.33 295.12 1207.97 298.48L1179.41 326.44Z" fill="white"/>
<path d="M139.24 338V334.04H141.64C144.52 334.04 146.28 333.6 146.92 332.72C147.64 331.76 148 330.08 148 327.68V269.6C148 267.6 147.8 266.12 147.4 265.16C147.08 264.2 146.28 263.56 145 263.24C143.8 262.92 141.84 262.76 139.12 262.76V258.8H166.84L187.96 312.8H188.2L208.84 258.8H235.36V262.76C232.8 262.76 230.88 262.92 229.6 263.24C228.4 263.56 227.6 264.2 227.2 265.16C226.88 266.12 226.72 267.6 226.72 269.6V327.32C226.72 329.16 226.88 330.6 227.2 331.64C227.6 332.6 228.4 333.24 229.6 333.56C230.88 333.88 232.8 334.04 235.36 334.04V338H200.56V334.04C203.12 334.04 204.96 333.88 206.08 333.56C207.2 333.16 207.92 332.48 208.24 331.52C208.56 330.56 208.72 329.16 208.72 327.32V271.76H208.48L184.24 336.32H178.12L153.28 272.48H153.16V327.68C153.16 330.32 153.52 332.04 154.24 332.84C154.96 333.64 156.76 334.04 159.64 334.04H163.24V338H139.24ZM266.825 338V334.04C269.145 334.04 270.825 333.88 271.865 333.56C272.985 333.24 273.705 332.68 274.025 331.88C274.345 331 274.505 329.72 274.505 328.04V292.52C274.505 290.68 274.265 289.48 273.785 288.92C273.385 288.28 272.505 287.96 271.145 287.96H267.185V284L286.265 281H291.545V328.04C291.545 329.72 291.705 331 292.025 331.88C292.345 332.68 292.985 333.24 293.945 333.56C294.985 333.88 296.505 334.04 298.505 334.04V338H266.825ZM282.545 274.28C279.905 274.28 277.585 273.36 275.585 271.52C273.665 269.68 272.705 267.44 272.705 264.8C272.705 262.08 273.665 259.8 275.585 257.96C277.585 256.12 279.905 255.2 282.545 255.2C284.385 255.2 286.025 255.64 287.465 256.52C288.985 257.4 290.185 258.56 291.065 260C291.945 261.44 292.385 263.04 292.385 264.8C292.385 267.44 291.385 269.68 289.385 271.52C287.465 273.36 285.185 274.28 282.545 274.28ZM349.803 339.44C346.523 339.44 343.683 338.88 341.283 337.76C338.883 336.56 337.043 334.68 335.763 332.12C334.563 329.48 333.963 326.04 333.963 321.8V285.92H326.763V281.96C329.963 281.32 332.923 280 335.643 278C338.363 275.92 340.683 273.36 342.603 270.32C344.603 267.2 346.083 263.88 347.043 260.36H351.003V281.6H362.763V285.92H351.003V321.08C351.003 324.76 351.483 327.56 352.443 329.48C353.483 331.32 355.283 332.24 357.843 332.24C359.283 332.24 360.603 331.96 361.803 331.4C363.083 330.76 363.963 330.28 364.443 329.96L366.483 333.32C365.443 334.04 364.203 334.88 362.763 335.84C361.323 336.8 359.563 337.64 357.483 338.36C355.403 339.08 352.843 339.44 349.803 339.44ZM414.349 339.44C411.069 339.44 408.229 338.88 405.829 337.76C403.429 336.56 401.589 334.68 400.309 332.12C399.109 329.48 398.509 326.04 398.509 321.8V285.92H391.309V281.96C394.509 281.32 397.469 280 400.189 278C402.909 275.92 405.229 273.36 407.149 270.32C409.149 267.2 410.629 263.88 411.589 260.36H415.549V281.6H427.309V285.92H415.549V321.08C415.549 324.76 416.029 327.56 416.989 329.48C418.029 331.32 419.829 332.24 422.389 332.24C423.829 332.24 425.149 331.96 426.349 331.4C427.629 330.76 428.509 330.28 428.989 329.96L431.029 333.32C429.989 334.04 428.749 334.88 427.309 335.84C425.869 336.8 424.109 337.64 422.029 338.36C419.949 339.08 417.389 339.44 414.349 339.44ZM457.536 338V334.04C459.856 334.04 461.536 333.88 462.576 333.56C463.696 333.24 464.416 332.68 464.736 331.88C465.056 331 465.216 329.72 465.216 328.04V292.52C465.216 290.68 464.976 289.48 464.496 288.92C464.096 288.28 463.216 287.96 461.856 287.96H457.896V284L476.976 281H482.256V328.04C482.256 329.72 482.416 331 482.736 331.88C483.056 332.68 483.696 333.24 484.656 333.56C485.696 333.88 487.216 334.04 489.216 334.04V338H457.536ZM473.256 274.28C470.616 274.28 468.296 273.36 466.296 271.52C464.376 269.68 463.416 267.44 463.416 264.8C463.416 262.08 464.376 259.8 466.296 257.96C468.296 256.12 470.616 255.2 473.256 255.2C475.096 255.2 476.736 255.64 478.176 256.52C479.696 257.4 480.896 258.56 481.776 260C482.656 261.44 483.096 263.04 483.096 264.8C483.096 267.44 482.096 269.68 480.096 271.52C478.176 273.36 475.896 274.28 473.256 274.28Z" fill="white"/>
<path d="M337.33 678V675.03C339.67 675.03 341.32 674.91 342.28 674.67C343.3 674.43 343.9 673.95 344.08 673.23C344.32 672.51 344.44 671.43 344.44 669.99V626.7C344.44 625.2 344.29 624.09 343.99 623.37C343.75 622.65 343.12 622.17 342.1 621.93C341.08 621.69 339.49 621.57 337.33 621.57V618.6H366.85C377.11 618.66 384.91 621 390.25 625.62C395.59 630.18 398.26 637.47 398.26 647.49C398.26 654.87 396.91 660.81 394.21 665.31C391.57 669.75 387.7 672.99 382.6 675.03C377.5 677.01 371.26 678 363.88 678H337.33ZM364.33 674.58C367.69 674.58 370.57 674.04 372.97 672.96C375.37 671.88 377.35 670.26 378.91 668.1C380.47 665.94 381.64 663.18 382.42 659.82C383.2 656.4 383.59 652.38 383.59 647.76C383.59 642 382.9 637.23 381.52 633.45C380.14 629.61 378.07 626.76 375.31 624.9C372.55 622.98 369.07 622.02 364.87 622.02C363.31 622.02 362.02 622.08 361 622.2C360.04 622.32 359.32 622.62 358.84 623.1C358.36 623.58 358.12 624.33 358.12 625.35V669.36C358.12 670.8 358.3 671.91 358.66 672.69C359.08 673.47 359.74 673.98 360.64 674.22C361.6 674.46 362.83 674.58 364.33 674.58ZM407.882 678V675.03C409.982 675.03 411.482 674.91 412.382 674.67C413.342 674.43 413.912 673.95 414.092 673.23C414.332 672.51 414.452 671.43 414.452 669.99V626.79C414.452 625.29 414.302 624.18 414.002 623.46C413.762 622.68 413.162 622.17 412.202 621.93C411.302 621.69 409.862 621.57 407.882 621.57V618.6H434.612V621.57C432.692 621.57 431.252 621.69 430.292 621.93C429.392 622.17 428.792 622.68 428.492 623.46C428.252 624.18 428.132 625.29 428.132 626.79V669.99C428.132 671.49 428.282 672.6 428.582 673.32C428.882 674.04 429.482 674.52 430.382 674.76C431.282 674.94 432.692 675.03 434.612 675.03V678H407.882ZM441.368 678V675.03C443.048 675.03 444.368 674.91 445.328 674.67C446.288 674.43 447.038 673.95 447.578 673.23C448.178 672.51 448.748 671.46 449.288 670.08L469.088 618.6H477.728L496.448 670.53C496.928 671.85 497.378 672.84 497.798 673.5C498.278 674.1 498.938 674.52 499.778 674.76C500.618 674.94 501.818 675.03 503.378 675.03V678H476.378V675.03H480.698C481.898 675.03 482.648 674.7 482.948 674.04C483.248 673.32 483.188 672.39 482.768 671.25L468.458 631.38H468.188L454.058 671.52C453.698 672.72 453.668 673.62 453.968 674.22C454.328 674.76 455.108 675.03 456.308 675.03H460.088V678H441.368ZM457.838 656.94L458.378 653.61H478.268L478.718 656.94H457.838ZM538.272 679.08C532.092 679.08 526.722 677.94 522.162 675.66C517.662 673.38 514.182 670.02 511.722 665.58C509.262 661.08 508.032 655.56 508.032 649.02C508.032 642.42 509.262 636.78 511.722 632.1C514.242 627.42 517.812 623.82 522.432 621.3C527.052 618.78 532.512 617.52 538.812 617.52C542.232 617.52 544.932 617.79 546.912 618.33C548.892 618.87 550.452 619.44 551.592 620.04C552.792 620.58 553.842 620.85 554.742 620.85C555.282 620.85 555.762 620.73 556.182 620.49C556.602 620.25 556.872 619.92 556.992 619.5L557.352 618.6H560.052L560.682 635.7H557.802C557.382 633.66 556.722 631.74 555.822 629.94C554.982 628.08 553.842 626.49 552.402 625.17C551.022 623.79 549.372 622.71 547.452 621.93C545.532 621.15 543.372 620.76 540.972 620.76C537.792 620.76 535.122 621.39 532.962 622.65C530.802 623.91 529.032 625.59 527.652 627.69C526.332 629.79 525.312 632.07 524.592 634.53C523.872 636.99 523.392 639.45 523.152 641.91C522.912 644.37 522.792 646.56 522.792 648.48C522.792 652.32 523.152 655.89 523.872 659.19C524.592 662.49 525.672 665.4 527.112 667.92C528.612 670.38 530.502 672.33 532.782 673.77C535.122 675.15 537.852 675.84 540.972 675.84C542.172 675.84 543.222 675.75 544.122 675.57C545.082 675.33 545.952 675.09 546.732 674.85C547.512 674.55 548.202 674.25 548.802 673.95V659.19C548.802 656.97 548.472 655.56 547.812 654.96C547.152 654.3 545.832 653.97 543.852 653.97H542.322V651.09H567.702V653.97H566.082C564.762 653.97 563.772 654.33 563.112 655.05C562.512 655.71 562.212 657.09 562.212 659.19V678H559.512C559.212 677.34 558.822 676.83 558.342 676.47C557.862 676.11 557.142 675.93 556.182 675.93C555.582 675.93 554.802 676.11 553.842 676.47C552.882 676.77 551.682 677.13 550.242 677.55C548.862 677.91 547.182 678.24 545.202 678.54C543.282 678.9 540.972 679.08 538.272 679.08ZM617.364 678.63L585.324 629.67H585.144V670.35C585.144 672.03 585.444 673.23 586.044 673.95C586.704 674.67 587.904 675.03 589.644 675.03H592.704V678H574.704V675.03H577.044C579.864 675.03 581.274 673.47 581.274 670.35V626.7C581.274 625.2 581.124 624.09 580.824 623.37C580.584 622.65 579.984 622.17 579.024 621.93C578.124 621.69 576.654 621.57 574.614 621.57V618.6H594.324L622.224 661.71H622.494V625.89C622.494 623.01 620.964 621.57 617.904 621.57H614.754V618.6H632.574V621.57H630.504C627.744 621.57 626.364 623.01 626.364 625.89V678.63H617.364ZM669.784 678.99C663.184 678.99 657.694 677.76 653.314 675.3C648.934 672.84 645.604 669.33 643.324 664.77C641.104 660.15 639.994 654.63 639.994 648.21C639.994 643.41 640.624 639.12 641.884 635.34C643.144 631.56 645.004 628.35 647.464 625.71C649.984 623.01 653.104 620.97 656.824 619.59C660.544 618.21 664.864 617.52 669.784 617.52C674.644 617.52 678.934 618.21 682.654 619.59C686.434 620.97 689.554 623.01 692.014 625.71C694.534 628.35 696.394 631.56 697.594 635.34C698.854 639.12 699.484 643.41 699.484 648.21C699.484 654.63 698.374 660.15 696.154 664.77C693.934 669.33 690.604 672.84 686.164 675.3C681.784 677.76 676.324 678.99 669.784 678.99ZM669.784 675.75C671.884 675.75 673.744 675.39 675.364 674.67C677.044 673.89 678.484 672.75 679.684 671.25C680.884 669.75 681.844 667.89 682.564 665.67C683.344 663.45 683.914 660.9 684.274 658.02C684.634 655.08 684.814 651.81 684.814 648.21C684.814 643.71 684.484 639.75 683.824 636.33C683.224 632.91 682.294 630.06 681.034 627.78C679.834 625.44 678.274 623.7 676.354 622.56C674.494 621.36 672.304 620.76 669.784 620.76C667.084 620.76 664.774 621.36 662.854 622.56C660.934 623.7 659.374 625.44 658.174 627.78C656.974 630.06 656.104 632.91 655.564 636.33C655.024 639.75 654.754 643.71 654.754 648.21C654.754 651.81 654.934 655.08 655.294 658.02C655.654 660.9 656.194 663.45 656.914 665.67C657.634 667.89 658.594 669.75 659.794 671.25C660.994 672.75 662.404 673.89 664.024 674.67C665.704 675.39 667.624 675.75 669.784 675.75ZM729.028 679.08C726.508 679.08 724.378 678.84 722.638 678.36C720.958 677.94 719.518 677.52 718.318 677.1C717.118 676.62 716.098 676.38 715.258 676.38C714.598 676.38 714.058 676.53 713.638 676.83C713.218 677.13 712.888 677.52 712.648 678H710.128L708.958 660.81H712.108C712.468 662.43 713.068 664.14 713.908 665.94C714.808 667.68 715.948 669.33 717.328 670.89C718.768 672.45 720.418 673.71 722.278 674.67C724.198 675.63 726.358 676.11 728.758 676.11C730.738 676.11 732.568 675.78 734.248 675.12C735.928 674.4 737.278 673.29 738.298 671.79C739.378 670.23 739.918 668.31 739.918 666.03C739.918 663.33 739.048 661.14 737.308 659.46C735.628 657.78 733.168 656.34 729.928 655.14L725.338 653.52C722.278 652.32 719.548 650.97 717.148 649.47C714.808 647.91 712.978 645.99 711.658 643.71C710.338 641.43 709.678 638.64 709.678 635.34C709.678 631.74 710.488 628.62 712.108 625.98C713.728 623.28 716.038 621.21 719.038 619.77C722.038 618.27 725.518 617.52 729.478 617.52C731.638 617.52 733.438 617.73 734.878 618.15C736.318 618.51 737.548 618.9 738.568 619.32C739.648 619.74 740.668 619.95 741.628 619.95C742.348 619.95 742.828 619.8 743.068 619.5C743.368 619.2 743.608 618.78 743.788 618.24H746.218L747.118 633.99H744.058C743.458 631.11 742.468 628.68 741.088 626.7C739.768 624.66 738.148 623.1 736.228 622.02C734.308 620.94 732.148 620.4 729.748 620.4C726.628 620.4 724.078 621.27 722.098 623.01C720.118 624.69 719.128 626.85 719.128 629.49C719.128 631.65 719.758 633.39 721.018 634.71C722.278 636.03 723.778 637.11 725.518 637.95C727.318 638.73 728.908 639.42 730.288 640.02L736.138 642.18C738.898 643.14 741.328 644.43 743.428 646.05C745.528 647.61 747.178 649.5 748.378 651.72C749.578 653.94 750.178 656.61 750.178 659.73C750.178 662.73 749.638 665.43 748.558 667.83C747.538 670.23 746.068 672.27 744.148 673.95C742.288 675.63 740.068 676.92 737.488 677.82C734.908 678.66 732.088 679.08 729.028 679.08ZM770.099 678V675.03C772.319 675.03 773.909 674.91 774.869 674.67C775.829 674.43 776.429 673.98 776.669 673.32C776.969 672.6 777.119 671.52 777.119 670.08V621.75H772.889C770.549 621.75 768.539 622.2 766.859 623.1C765.239 623.94 763.919 625.29 762.899 627.15C761.939 629.01 761.249 631.41 760.829 634.35H757.679L757.769 618.6H810.149V634.35H807.089C806.489 631.05 805.649 628.5 804.569 626.7C803.549 624.9 802.229 623.64 800.609 622.92C798.989 622.14 796.979 621.75 794.579 621.75H790.799V670.08C790.799 671.52 790.949 672.6 791.249 673.32C791.549 673.98 792.179 674.43 793.139 674.67C794.159 674.91 795.719 675.03 797.819 675.03V678H770.099ZM817.983 678V675.03C820.083 675.03 821.583 674.91 822.483 674.67C823.443 674.43 824.013 673.95 824.193 673.23C824.433 672.51 824.553 671.43 824.553 669.99V626.79C824.553 625.29 824.403 624.18 824.103 623.46C823.863 622.68 823.263 622.17 822.303 621.93C821.403 621.69 819.963 621.57 817.983 621.57V618.6H844.713V621.57C842.793 621.57 841.353 621.69 840.393 621.93C839.493 622.17 838.893 622.68 838.593 623.46C838.353 624.18 838.233 625.29 838.233 626.79V669.99C838.233 671.49 838.383 672.6 838.683 673.32C838.983 674.04 839.583 674.52 840.483 674.76C841.383 674.94 842.793 675.03 844.713 675.03V678H817.983ZM883.101 679.08C876.801 679.08 871.341 677.94 866.721 675.66C862.161 673.38 858.651 669.99 856.191 665.49C853.791 660.99 852.591 655.47 852.591 648.93C852.591 642.21 853.821 636.54 856.281 631.92C858.801 627.24 862.371 623.67 866.991 621.21C871.671 618.75 877.221 617.52 883.641 617.52C886.821 617.52 889.401 617.79 891.381 618.33C893.421 618.87 895.041 619.44 896.241 620.04C897.441 620.58 898.431 620.85 899.211 620.85C899.811 620.85 900.291 620.73 900.651 620.49C901.071 620.25 901.371 619.92 901.551 619.5L901.911 618.6H904.341L905.241 635.61H902.361C901.941 633.51 901.281 631.59 900.381 629.85C899.541 628.05 898.401 626.46 896.961 625.08C895.581 623.7 893.931 622.65 892.011 621.93C890.091 621.15 887.901 620.76 885.441 620.76C882.261 620.76 879.591 621.39 877.431 622.65C875.331 623.91 873.591 625.59 872.211 627.69C870.891 629.73 869.871 632.01 869.151 634.53C868.431 636.99 867.951 639.45 867.711 641.91C867.471 644.31 867.351 646.44 867.351 648.3C867.351 652.14 867.681 655.74 868.341 659.1C869.001 662.46 870.051 665.4 871.491 667.92C872.931 670.38 874.791 672.33 877.071 673.77C879.351 675.15 882.111 675.84 885.351 675.84C887.991 675.84 890.301 675.48 892.281 674.76C894.321 673.98 896.061 672.96 897.501 671.7C899.001 670.38 900.231 668.94 901.191 667.38C902.151 665.82 902.901 664.23 903.441 662.61L906.051 663.78C905.451 665.58 904.581 667.41 903.441 669.27C902.361 671.07 900.921 672.72 899.121 674.22C897.321 675.72 895.101 676.92 892.461 677.82C889.821 678.66 886.701 679.08 883.101 679.08ZM934.945 679.08C932.425 679.08 930.295 678.84 928.555 678.36C926.875 677.94 925.435 677.52 924.235 677.1C923.035 676.62 922.015 676.38 921.175 676.38C920.515 676.38 919.975 676.53 919.555 676.83C919.135 677.13 918.805 677.52 918.565 678H916.045L914.875 660.81H918.025C918.385 662.43 918.985 664.14 919.825 665.94C920.725 667.68 921.865 669.33 923.245 670.89C924.685 672.45 926.335 673.71 928.195 674.67C930.115 675.63 932.275 676.11 934.675 676.11C936.655 676.11 938.485 675.78 940.165 675.12C941.845 674.4 943.195 673.29 944.215 671.79C945.295 670.23 945.835 668.31 945.835 666.03C945.835 663.33 944.965 661.14 943.225 659.46C941.545 657.78 939.085 656.34 935.845 655.14L931.255 653.52C928.195 652.32 925.465 650.97 923.065 649.47C920.725 647.91 918.895 645.99 917.575 643.71C916.255 641.43 915.595 638.64 915.595 635.34C915.595 631.74 916.405 628.62 918.025 625.98C919.645 623.28 921.955 621.21 924.955 619.77C927.955 618.27 931.435 617.52 935.395 617.52C937.555 617.52 939.355 617.73 940.795 618.15C942.235 618.51 943.465 618.9 944.485 619.32C945.565 619.74 946.585 619.95 947.545 619.95C948.265 619.95 948.745 619.8 948.985 619.5C949.285 619.2 949.525 618.78 949.705 618.24H952.135L953.035 633.99H949.975C949.375 631.11 948.385 628.68 947.005 626.7C945.685 624.66 944.065 623.1 942.145 622.02C940.225 620.94 938.065 620.4 935.665 620.4C932.545 620.4 929.995 621.27 928.015 623.01C926.035 624.69 925.045 626.85 925.045 629.49C925.045 631.65 925.675 633.39 926.935 634.71C928.195 636.03 929.695 637.11 931.435 637.95C933.235 638.73 934.825 639.42 936.205 640.02L942.055 642.18C944.815 643.14 947.245 644.43 949.345 646.05C951.445 647.61 953.095 649.5 954.295 651.72C955.495 653.94 956.095 656.61 956.095 659.73C956.095 662.73 955.555 665.43 954.475 667.83C953.455 670.23 951.985 672.27 950.065 673.95C948.205 675.63 945.985 676.92 943.405 677.82C940.825 678.66 938.005 679.08 934.945 679.08Z" fill="white"/>
</svg>
